<svg width="687" height="490" viewBox="0 0 687 490" fill="none" xmlns="http://www.w3.org/2000/svg">
<path d="M323.598 225.389L257.502 212.762C251.473 200.076 251.473 194.563 251.473 187.449C257.502 181.106 269.504 174.823 269.504 168.479C275.533 149.51 275.533 136.883 275.533 136.883C278.632 132.14 287.535 124.256 287.535 111.57C287.535 98.8835 275.533 86.2567 275.533 79.9729C275.533 29.3469 251.022 10.377 215.41 10.377C181.32 10.377 155.287 29.3469 155.287 79.9136C155.287 86.2567 143.285 98.8835 143.285 111.51C143.285 124.137 151.85 132.496 155.287 136.823C155.287 136.823 155.287 149.45 161.316 168.42C161.316 174.763 173.318 181.047 179.348 187.39C179.348 193.733 179.348 200.017 173.318 212.703L107.223 225.389C83.1622 231.673 71.1602 275.956 71.1602 313.896H359.66C359.66 275.956 347.658 231.673 323.598 225.389Z" fill="#02007B"/>
<path d="M26.7754 363.106H250.2" stroke="#02007B" stroke-width="2.295"/>
<path d="M302 363L550.755 363.29" stroke="#02007B" stroke-width="2.295"/>
<path d="M497.975 0C496.083 7.03521 490.384 13.4259 488.056 20.6449C481.881 39.7916 488.225 56.9521 497.975 73.4824H499.687C511.769 57.2142 514.65 39.735 510.166 20.3506C508.702 14.0237 504.331 3.15819 497.975 0ZM537.352 50.6212C533.124 55.8246 526.273 59.2489 521.757 64.5306C513.122 74.6296 513.383 87.382 513.383 99.6095C518.09 98.9563 522.354 95.3965 525.653 92.2613C533.836 84.4836 536.845 77.5346 539.453 67.0894C540.821 61.6134 541.924 55.8646 539.064 50.6212H537.352ZM472.295 75.1154C472.295 80.3408 471.538 86.159 472.517 91.306C473.898 98.5628 477.851 104.388 481.964 110.412C485.617 115.765 491.781 121.999 498.831 122.471C500.555 109.457 497.519 98.1586 490.019 87.1738C486.123 81.4675 479.81 75.3325 472.295 75.1154ZM506.535 142.066C520.606 140.29 535.183 130.666 535.64 115.939C521.464 115.985 506.963 128.232 506.535 142.066ZM475.719 195.953H477.431C479.369 187.801 485.436 179.497 490.023 172.467C491.911 169.575 495.222 166.516 496.025 163.144C497.162 158.374 495.654 153.918 494.772 149.342C493.822 144.403 492.18 139.832 486.864 145.067C485.955 145.961 485.165 146.906 484.493 147.974C477.783 158.64 477.965 170.139 477.398 182.073C477.174 186.775 475.733 191.193 475.719 195.953ZM470.583 217.181C464.376 219.023 459.243 227.471 454.288 231.565C446.123 238.312 436.505 243.517 426.759 247.732C420.58 250.404 414.094 253.047 407.239 253.106C410.531 239.027 420.093 226.354 429.308 215.34C432.118 211.981 435.994 209.551 438.211 205.739C440.753 201.367 446.127 190.717 442.066 186.072C438.827 182.367 433.585 189.33 431.492 191.326C422.936 199.488 413.806 207.749 406.573 216.973C399.35 226.185 392.056 235.591 385.59 245.329C381.92 250.855 378.91 257.073 374.382 262.058C358.129 279.953 337.885 290.078 314.178 295.931C304.656 298.282 295.601 300.461 285.686 300.461C288.546 305.666 299.574 307.619 305.13 309.206C328.399 315.85 353.134 315.976 376.419 309.338C402.798 301.818 429.476 289.582 450.864 272.879C473.587 255.135 490.492 231.341 505.037 207.395C512.5 195.108 518.96 182.512 524.263 169.234C526.298 164.138 529.747 158.916 530.504 153.497C527.526 153.497 524.238 153.139 521.335 153.872C518.534 154.579 516.434 156.393 514.038 157.816C509.177 160.701 504.939 163.065 501.213 167.406C493.629 176.241 489.919 187.003 483.671 196.578C479.675 202.704 471.683 209.978 470.583 217.181ZM289.11 289.031V290.664C298.634 290.664 307.846 290.84 317.114 288.659C321.853 287.544 326.219 285.418 330.539 283.315C338.899 279.245 348.334 271.658 353.554 264.146C366.061 246.148 368.461 223.507 380.454 205.126C385.392 197.557 391.098 188.316 398.46 182.712C401.608 180.316 404.932 177.381 408.297 175.309C411.204 173.516 414.124 172.891 415.799 169.826C396.865 169.828 379.339 181.779 369.788 196.962C365.348 204.021 363.442 211.807 360.406 219.406C353.896 235.709 346.776 251.832 335.147 265.383C333.116 267.75 331.784 270.334 329.311 272.389C322.754 277.835 314.613 281.754 306.602 284.712C300.893 286.819 295.344 288.965 289.11 289.031Z" fill="#02007B"/>
<path d="M48.4577 458.89L45.543 453.255H90.3315V465.885H35.3418V453.838L76.244 408.758L79.1587 414.393H36.0218V401.763H89.1656V413.81L48.4577 458.89ZM122.006 466.856C116.63 466.856 111.967 465.853 108.016 463.845C104.13 461.837 101.118 458.954 98.9806 455.198C96.8432 451.441 95.7745 446.907 95.7745 441.596C95.7745 436.285 96.8432 431.751 98.9806 427.994C101.118 424.238 104.097 421.356 107.919 419.348C111.805 417.34 116.242 416.336 121.229 416.336C126.346 416.336 130.685 417.34 134.248 419.348C137.875 421.291 140.628 424.011 142.506 427.509C144.384 430.941 145.324 434.892 145.324 439.362C145.324 440.527 145.291 441.693 145.226 442.859C145.162 444.025 145.064 444.997 144.935 445.774H106.462V436.933H137.648L129.779 439.945C129.779 436.058 129.066 433.079 127.641 431.006C126.281 428.934 124.144 427.897 121.229 427.897C119.156 427.897 117.375 428.383 115.886 429.355C114.461 430.326 113.36 431.848 112.582 433.921C111.87 435.994 111.514 438.649 111.514 441.888C111.514 445.061 111.935 447.652 112.777 449.66C113.619 451.603 114.817 453.028 116.371 453.935C117.926 454.777 119.804 455.198 122.006 455.198C124.468 455.198 126.411 454.712 127.836 453.741C129.325 452.769 130.426 451.409 131.139 449.66L144.352 454.032C143.445 456.817 141.858 459.181 139.591 461.124C137.389 463.003 134.734 464.428 131.625 465.399C128.58 466.371 125.374 466.856 122.006 466.856ZM154.563 465.885V417.307H169.136L169.816 427.8C171.047 424.173 172.861 421.356 175.257 419.348C177.718 417.34 180.827 416.336 184.584 416.336C185.815 416.336 186.851 416.433 187.693 416.627C188.6 416.822 189.312 417.081 189.83 417.405L188.179 431.006C187.531 430.747 186.689 430.553 185.653 430.423C184.681 430.229 183.483 430.132 182.058 430.132C180.115 430.132 178.301 430.553 176.617 431.395C174.933 432.237 173.573 433.5 172.537 435.184C171.565 436.803 171.079 438.876 171.079 441.402V465.885H154.563ZM218.863 416.336C223.98 416.336 228.449 417.34 232.27 419.348C236.157 421.291 239.168 424.173 241.306 427.994C243.508 431.751 244.609 436.285 244.609 441.596C244.609 446.907 243.508 451.474 241.306 455.295C239.168 459.052 236.157 461.934 232.27 463.942C228.449 465.885 223.98 466.856 218.863 466.856C213.876 466.856 209.439 465.885 205.553 463.942C201.667 461.934 198.622 459.052 196.42 455.295C194.283 451.474 193.214 446.907 193.214 441.596C193.214 436.285 194.283 431.751 196.42 427.994C198.622 424.173 201.667 421.291 205.553 419.348C209.439 417.34 213.876 416.336 218.863 416.336ZM218.863 428.092C216.985 428.092 215.365 428.545 214.005 429.452C212.645 430.359 211.609 431.816 210.896 433.824C210.184 435.832 209.828 438.422 209.828 441.596C209.828 444.77 210.184 447.361 210.896 449.369C211.609 451.312 212.645 452.769 214.005 453.741C215.365 454.647 216.985 455.101 218.863 455.101C220.806 455.101 222.458 454.647 223.818 453.741C225.178 452.769 226.214 451.312 226.927 449.369C227.639 447.361 227.996 444.77 227.996 441.596C227.996 438.422 227.639 435.832 226.927 433.824C226.214 431.816 225.178 430.359 223.818 429.452C222.458 428.545 220.806 428.092 218.863 428.092ZM262.566 465.885L244.107 401.763H261.886L272.767 452.38L284.232 401.763H299.388L311.144 452.283L321.831 401.763H339.027L320.47 465.885H302.302L294.724 434.795L291.81 419.153H291.615L288.798 434.795L281.317 465.885H262.566ZM369.148 435.087C369.148 432.82 368.5 431.039 367.205 429.743C365.974 428.383 364.29 427.703 362.153 427.703C360.016 427.703 358.17 428.254 356.615 429.355C355.125 430.391 354.089 432.269 353.506 434.99L339.516 431.686C340.423 427.023 342.819 423.299 346.705 420.514C350.592 417.728 356.065 416.336 363.125 416.336C367.853 416.336 371.868 417.048 375.172 418.473C378.54 419.833 381.098 421.906 382.847 424.691C384.661 427.412 385.567 430.78 385.567 434.795V452.575C385.567 455.101 386.701 456.364 388.968 456.364C390.134 456.364 391.073 456.234 391.785 455.975L390.814 465.399C388.871 466.306 386.506 466.759 383.721 466.759C381.195 466.759 378.961 466.371 377.018 465.593C375.075 464.751 373.552 463.521 372.451 461.902C371.35 460.218 370.8 458.112 370.8 455.586V455.004L372.646 454.323C372.646 457.109 371.804 459.44 370.12 461.319C368.5 463.197 366.363 464.589 363.707 465.496C361.117 466.403 358.396 466.856 355.546 466.856C352.243 466.856 349.361 466.338 346.9 465.302C344.438 464.266 342.528 462.776 341.167 460.833C339.872 458.825 339.224 456.364 339.224 453.449C339.224 449.951 340.261 447.069 342.333 444.802C344.471 442.471 347.806 440.851 352.34 439.945L370.703 436.155L370.605 444.899L361.279 446.843C359.335 447.231 357.878 447.814 356.907 448.591C356 449.304 355.546 450.405 355.546 451.895C355.546 453.32 356.065 454.388 357.101 455.101C358.137 455.813 359.368 456.169 360.793 456.169C361.894 456.169 362.93 456.007 363.902 455.684C364.938 455.36 365.845 454.874 366.622 454.226C367.399 453.514 368.015 452.639 368.468 451.603C368.921 450.567 369.148 449.336 369.148 447.911V435.087ZM418.707 466.856C413.849 466.856 409.315 466.079 405.105 464.525C400.96 462.905 397.527 460.606 394.807 457.627L402.579 448.494C404.199 450.567 406.336 452.316 408.991 453.741C411.712 455.101 414.724 455.781 418.027 455.781C420.035 455.781 421.686 455.489 422.982 454.906C424.277 454.323 424.925 453.417 424.925 452.186C424.925 451.279 424.601 450.567 423.953 450.049C423.306 449.466 422.01 448.98 420.067 448.591L413.266 447.231C407.178 446 402.838 444.187 400.248 441.79C397.722 439.329 396.459 436.123 396.459 432.172C396.459 429.517 397.268 426.991 398.887 424.594C400.507 422.133 403 420.157 406.368 418.668C409.736 417.113 414.044 416.336 419.29 416.336C424.212 416.336 428.552 417.048 432.309 418.473C436.065 419.898 439.045 421.971 441.247 424.691L433.377 433.629C431.823 431.686 429.815 430.164 427.354 429.063C424.893 427.962 422.431 427.412 419.97 427.412C418.416 427.412 417.088 427.573 415.987 427.897C414.95 428.156 414.173 428.545 413.655 429.063C413.137 429.581 412.878 430.229 412.878 431.006C412.878 431.848 413.266 432.593 414.044 433.241C414.886 433.824 416.408 434.342 418.61 434.795L427.451 436.544C432.438 437.451 436.033 439.102 438.235 441.499C440.437 443.895 441.538 446.778 441.538 450.146C441.538 453.32 440.696 456.169 439.012 458.695C437.328 461.221 434.802 463.229 431.434 464.719C428.066 466.144 423.824 466.856 418.707 466.856ZM470.413 401.86V448.591C470.413 450.923 470.964 452.607 472.065 453.643C473.231 454.615 474.818 455.101 476.825 455.101C478.38 455.101 479.708 454.939 480.809 454.615C481.975 454.226 483.011 453.676 483.918 452.963L485.667 463.165C484.047 464.33 482.007 465.237 479.546 465.885C477.084 466.533 474.558 466.856 471.968 466.856C468.276 466.856 465.07 466.338 462.349 465.302C459.694 464.266 457.621 462.614 456.131 460.347C454.706 458.08 453.962 455.068 453.897 451.312V406.426L470.413 401.86ZM484.889 417.307V429.063H445.542V417.307H484.889ZM516.224 466.856C510.848 466.856 506.185 465.853 502.234 463.845C498.347 461.837 495.336 458.954 493.198 455.198C491.061 451.441 489.992 446.907 489.992 441.596C489.992 436.285 491.061 431.751 493.198 427.994C495.336 424.238 498.315 421.356 502.137 419.348C506.023 417.34 510.459 416.336 515.447 416.336C520.564 416.336 524.903 417.34 528.466 419.348C532.093 421.291 534.845 424.011 536.724 427.509C538.602 430.941 539.541 434.892 539.541 439.362C539.541 440.527 539.509 441.693 539.444 442.859C539.379 444.025 539.282 444.997 539.153 445.774H500.679V436.933H531.866L523.996 439.945C523.996 436.058 523.284 433.079 521.859 431.006C520.499 428.934 518.361 427.897 515.447 427.897C513.374 427.897 511.593 428.383 510.103 429.355C508.678 430.326 507.577 431.848 506.8 433.921C506.088 435.994 505.731 438.649 505.731 441.888C505.731 445.061 506.152 447.652 506.994 449.66C507.836 451.603 509.035 453.028 510.589 453.935C512.144 454.777 514.022 455.198 516.224 455.198C518.685 455.198 520.628 454.712 522.053 453.741C523.543 452.769 524.644 451.409 525.357 449.66L538.57 454.032C537.663 456.817 536.076 459.181 533.809 461.124C531.607 463.003 528.951 464.428 525.842 465.399C522.798 466.371 519.592 466.856 516.224 466.856Z" fill="#15127D"/>
<mask id="mask0_2184_1829" style="mask-type:luminance" maskUnits="userSpaceOnUse" x="244" y="332" width="62" height="57">
<path d="M297.146 372.001C296.387 370.625 296.415 368.838 295.668 367.459C295.055 366.328 293.146 366.49 292.927 367.843C292.813 368.542 293.203 369.268 293.381 369.922C293.842 371.617 294.35 373.299 294.835 374.99C295.048 375.739 295.229 376.783 295.986 377.176C296.716 377.554 297.73 377.023 298.437 376.794C300.015 376.285 301.624 375.833 303.214 375.361C303.888 375.161 304.966 374.956 305.454 374.416C306.265 373.517 305.624 372.087 304.505 371.916C303.81 371.81 303.105 372.235 302.439 372.39C301.599 372.584 300.815 372.93 299.986 373.171C300.287 371.849 301.118 370.549 301.605 369.272C302.257 367.564 302.684 365.629 302.919 363.815C304.317 352.983 298.984 341.369 289.4 335.972C285.915 334.01 282.038 332.533 278.038 332.131C273.244 331.648 268.517 332.527 264.095 334.328C262.146 335.121 260.367 336.205 258.672 337.456C258.073 337.899 257.16 338.45 257.034 339.256C256.836 340.532 258.292 341.268 259.317 340.741C260.825 339.966 262.052 338.656 263.578 337.875C267.231 336.005 271.11 335.097 275.198 335.097C276.61 335.097 278.073 335.109 279.458 335.422C282.362 336.079 285.142 336.991 287.721 338.535C295.79 343.365 300.747 352.411 300.104 361.866C299.856 365.503 298.655 368.732 297.146 372.001ZM260.996 375.64C261.2 376.373 261.808 376.772 262.287 377.329C263.226 376.887 263.867 375.834 264.437 374.99C266.019 372.647 267.123 369.772 268.282 367.193C269.297 364.935 270.657 362.793 271.964 360.696C274.221 357.074 276.737 353.493 279.716 350.431C279.262 351.52 278.481 352.553 277.845 353.549C277.122 354.683 276.486 355.893 275.811 357.058C274.116 359.978 272.648 363.002 271.147 366.024C270.362 367.604 269.578 369.186 268.931 370.832C268.668 371.499 268.298 372.052 268.226 372.781C270.648 372.781 273.118 372.626 275.456 371.927C276.766 371.536 278.173 370.957 279.329 370.222C280.292 369.609 281.155 368.904 281.948 368.081C287.013 362.823 286.689 355.137 286.689 348.352C286.689 346.313 286.812 344.274 286.818 342.244C284.379 342.251 281.722 343.184 279.458 344.034C272.455 346.665 265.347 351.45 263.784 359.267C263.232 362.028 263.474 364.712 264.023 367.453C264.173 368.201 264.408 368.946 264.667 369.662C264.8 370.03 265.033 370.427 264.973 370.832C264.892 371.383 264.437 371.94 264.137 372.391C263.308 373.635 262.266 374.84 260.996 375.64ZM249.764 348.352C249.302 349.848 248.601 351.248 248.181 352.77C247.298 355.97 247.08 359.464 247.322 362.775C248.048 372.737 255.127 382.107 264.224 385.879C271.088 388.725 278.801 388.681 285.655 385.905C287.296 385.241 288.827 384.47 290.303 383.479C290.97 383.032 291.71 382.62 291.828 381.747C292.001 380.475 290.815 379.691 289.658 380.227C288.973 380.544 288.366 381.113 287.721 381.512C286.504 382.263 285.162 382.914 283.836 383.451C278.148 385.76 271.704 385.352 266.03 383.324C264.801 382.884 263.668 382.199 262.545 381.542C254.84 377.039 249.764 368.153 250.156 359.137C250.266 356.612 250.882 354.119 251.659 351.73C251.921 350.926 252.372 350.2 252.604 349.391H252.862C253.098 350.415 253.571 351.4 253.949 352.38C254.152 352.905 254.31 353.587 254.649 354.04C255.176 354.745 256.366 354.7 256.91 354.04C257.892 352.844 256.41 350.603 256.006 349.391C255.602 348.172 255.159 346.963 254.725 345.753C254.534 345.219 254.437 344.678 253.889 344.398C252.971 343.927 251.806 344.361 250.925 344.713C249.612 345.238 248.162 345.759 246.794 346.112C246.022 346.311 244.801 346.545 244.278 347.199C243.646 347.991 244.163 349.326 245.115 349.575C245.726 349.734 246.476 349.35 247.052 349.164C247.948 348.875 248.846 348.565 249.764 348.352Z" fill="white"/>
</mask>
<g mask="url(#mask0_2184_1829)">
<path d="M297.146 372.001L237.208 400.101L302.545 518.589L359.014 396.287L297.146 372.001ZM295.668 367.459L355.816 339.743V339.742L295.668 367.459ZM292.927 367.843L359.426 377.028V377.027L292.927 367.843ZM293.381 369.922L358.604 354.847V354.844L293.381 369.922ZM294.835 374.99L229.817 390.805L229.818 390.808L294.835 374.99ZM295.987 377.176L328.935 323.129L328.928 323.125L295.987 377.176ZM298.438 376.794L320.652 435.313L320.66 435.311L298.438 376.794ZM303.214 375.361L323.823 434.377L323.825 434.376L303.214 375.361ZM304.506 371.916L315.471 310.746H315.467L304.506 371.916ZM302.44 372.39L286.065 312.256L286.061 312.257L302.44 372.39ZM299.986 373.171L234.176 360.453L210.589 464.224L320.238 432.292L299.986 373.171ZM301.605 369.272L238.179 348.688L238.178 348.691L301.605 369.272ZM302.919 363.815L369.688 371.144L369.689 371.14L302.919 363.815ZM289.4 335.972L254.353 388.885H254.355L289.4 335.972ZM264.095 334.328L236.938 277.609H236.937L264.095 334.328ZM258.672 337.456L216.651 289.054L216.65 289.055L258.672 337.456ZM257.034 339.256L323.595 348.055V348.053L257.034 339.256ZM259.317 340.741L226.571 286.59L226.568 286.592L259.317 340.741ZM263.578 337.875L230.937 283.669L230.935 283.671L263.578 337.875ZM279.458 335.422L295.475 275.206H295.472L279.458 335.422ZM287.721 338.535L324.339 286.535L324.338 286.534L287.721 338.535ZM300.104 361.866L232.995 357.983V357.984L300.104 361.866ZM260.996 375.64L223.079 324.438L184.129 348.961L195.873 391.079L260.996 375.64ZM262.287 377.329L209.587 415.836L243.796 455.638L292.853 432.553L262.287 377.329ZM264.437 374.99L321.526 407.748L321.527 407.747L264.437 374.99ZM271.964 360.696L330.265 391.586V391.585L271.964 360.696ZM279.716 350.431L342.462 372.721L229.668 309.025L279.716 350.431ZM277.846 353.549L219.888 322.114L219.887 322.116L277.846 353.549ZM275.811 357.058L216.522 327.81L216.519 327.813L275.811 357.058ZM271.147 366.024L332.279 391.846L332.28 391.843L271.147 366.024ZM268.931 370.832L332.143 391.97L332.144 391.968L268.931 370.832ZM268.226 372.781L201.267 367.107L194.522 434.781H268.226V372.781ZM275.456 371.927L296.181 430.909L296.185 430.908L275.456 371.927ZM279.329 370.222L241.138 319.192L241.137 319.193L279.329 370.222ZM286.818 342.244L354.059 342.401L354.229 280.057L286.615 280.244L286.818 342.244ZM279.458 344.034L254.09 286.616L254.087 286.617L279.458 344.034ZM264.023 367.453L197.901 378.715V378.716L264.023 367.453ZM264.667 369.662L200.879 389.276L200.88 389.28L264.667 369.662ZM264.973 370.832L198.348 362.456L198.347 362.468L264.973 370.832ZM264.137 372.391L206.851 339.926L206.845 339.934L206.84 339.942L264.137 372.391ZM249.764 348.352L314.442 365.303L346.31 261.931L233.304 288.238L249.764 348.352ZM248.181 352.77L313.35 368.044V368.043L248.181 352.77ZM247.322 362.775L180.232 366.929V366.93L247.322 362.775ZM264.224 385.879L291.798 329.332V329.331L264.224 385.879ZM285.655 385.905L312.693 442.672H312.695L285.655 385.905ZM290.304 383.479L329.879 433.603H329.88L290.304 383.479ZM291.828 381.747L225.107 374.056V374.059L291.828 381.747ZM289.658 380.227L259.477 324.823L259.472 324.825L289.658 380.227ZM287.721 381.512L325.151 433.018L325.152 433.017L287.721 381.512ZM266.031 383.324L241.713 441.127L241.716 441.128L266.031 383.324ZM262.545 381.542L298.546 329.177L298.544 329.176L262.545 381.542ZM250.156 359.137L182.968 356.651V356.652L250.156 359.137ZM251.659 351.73L187.258 333.904L187.257 333.906L251.659 351.73ZM252.604 349.391V287.391H200.806L187.588 333.571L252.604 349.391ZM252.862 349.391L318.634 336.5L307.312 287.391H252.862V349.391ZM253.949 352.38L190.582 373.121H190.583L253.949 352.38ZM254.65 354.04L310.007 318.846L310 318.836L254.65 354.04ZM256.91 354.04L203.326 316.584L203.322 316.589L256.91 354.04ZM254.725 345.753L190.875 365.189L190.877 365.196L254.725 345.753ZM253.889 344.398L221.239 398.598L221.251 398.604L253.889 344.398ZM250.925 344.713L224.184 287.827L224.183 287.828L250.925 344.713ZM246.794 346.112L264.884 405.826L264.894 405.824L246.794 346.112ZM244.278 347.199L190.124 310.448L190.121 310.452L244.278 347.199ZM245.115 349.575L226.816 409.234L226.818 409.235L245.115 349.575ZM247.052 349.164L224.831 290.648L224.817 290.652L247.052 349.164ZM297.146 372.001L357.085 343.901C359.572 348.412 360.857 352.224 361.466 354.239C361.785 355.292 361.995 356.112 362.096 356.522C362.186 356.888 362.249 357.166 362.19 356.91C362.168 356.813 362.019 356.157 361.844 355.441C361.655 354.674 361.354 353.498 360.935 352.097C360.127 349.39 358.609 344.895 355.816 339.743L295.668 367.459L235.519 395.175C233.101 390.712 231.859 386.958 231.279 385.017C230.975 383.999 230.777 383.212 230.685 382.837C230.605 382.514 230.547 382.254 230.615 382.552C230.647 382.692 230.801 383.365 230.988 384.124C231.187 384.926 231.499 386.135 231.934 387.571C232.776 390.35 234.341 394.902 237.208 400.101L297.146 372.001ZM295.668 367.459L355.816 339.742C341.28 312.923 311.2 302.213 285.646 305.218C258.189 308.445 231.424 327.9 226.428 358.659L292.927 367.843L359.426 377.027C354.649 406.433 328.948 425.131 302.654 428.222C278.262 431.089 249.443 420.864 235.519 395.175L295.668 367.459ZM292.927 367.843L226.428 358.659C224.266 371.961 227.324 382.395 228.26 385.502C228.771 387.2 229.351 388.811 229.229 388.465C229.229 388.462 229.22 388.438 229.209 388.403C229.196 388.367 229.177 388.312 229.153 388.243C229.107 388.108 229.032 387.889 228.942 387.614C228.768 387.086 228.476 386.167 228.16 385.001L293.381 369.922L358.604 354.844C357.948 352.431 357.237 350.453 357.21 350.374C356.969 349.686 357.424 350.949 357.83 352.297C358.555 354.702 361.474 364.424 359.426 377.028L292.927 367.843ZM293.381 369.922L228.159 384.998C228.729 387.096 229.671 390.292 229.817 390.805L294.835 374.99L359.851 359.175C359.029 356.305 358.956 356.139 358.604 354.847L293.381 369.922ZM294.835 374.99L229.818 390.808C229.678 390.317 229.573 389.918 229.617 390.086C229.62 390.093 229.754 390.602 229.912 391.164C230.212 392.229 230.997 394.959 232.363 398.271C234.529 403.518 242.151 420.4 263.045 431.226L295.987 377.176L328.928 323.125C349.064 333.559 356.217 349.723 358.05 354.162C359.251 357.071 359.902 359.375 360.084 360.021C360.183 360.373 360.263 360.675 360.21 360.48C360.202 360.446 360.045 359.85 359.85 359.172L294.835 374.99ZM295.987 377.176L263.038 431.222C287.601 443.953 310.54 438.183 315.684 436.829C319.375 435.857 322.232 434.79 322.84 434.566C324.71 433.875 322.332 434.771 320.652 435.313L298.438 376.794L276.222 318.276C274.188 318.932 271.419 319.979 272.878 319.441C273.074 319.369 275.5 318.453 278.757 317.595C283.034 316.469 305.102 310.776 328.935 323.129L295.987 377.176ZM298.438 376.794L320.66 435.311C320.613 435.325 320.752 435.28 321.322 435.112C321.611 435.026 321.903 434.941 322.344 434.812C322.745 434.695 323.27 434.541 323.823 434.377L303.214 375.361L282.606 316.345C282.392 316.408 278.855 317.426 276.215 318.278L298.438 376.794ZM303.214 375.361L323.825 434.376C323.055 434.605 321.357 435.069 322.947 434.633C323.582 434.459 325.604 433.904 328.067 433.05C330.474 432.216 334.559 430.673 339.236 428.122C343.844 425.607 350.695 421.216 357.14 414.074L305.455 374.416L253.769 334.757C259.97 327.886 266.502 323.722 270.751 321.405C275.067 319.05 278.749 317.672 280.741 316.982C282.79 316.272 284.385 315.84 284.613 315.777C285.796 315.453 283.711 316.017 282.603 316.346L303.214 375.361ZM305.455 374.416L357.14 414.074C375.617 393.6 375.777 368.713 368.707 351.231C361.999 334.644 344.738 315.207 315.471 310.746L304.506 371.916L293.54 433.086C265.392 428.796 249.01 410.159 242.7 394.555C236.028 378.056 236.101 354.333 253.768 334.758L305.455 374.416ZM304.506 371.916L315.467 310.746C306.251 309.341 298.344 309.916 292.683 310.805C287.228 311.663 283.052 312.951 281.145 313.57C279.947 313.958 277.366 314.874 279.016 314.295C279.385 314.165 282.239 313.142 286.065 312.256L302.44 372.39L318.815 432.523C322.974 431.56 326.166 430.426 326.876 430.177C327.039 430.119 327.937 429.8 327.392 429.993C327.266 430.038 326.629 430.265 325.778 430.541C324.217 431.048 320.39 432.239 315.283 433.042C309.971 433.877 302.413 434.438 293.544 433.087L304.506 371.916ZM302.44 372.39L286.061 312.257C283.718 312.8 281.772 313.364 280.372 313.798C279.012 314.22 277.919 314.599 277.469 314.755C277.344 314.799 277.236 314.837 277.167 314.861C277.056 314.9 277.085 314.89 277.03 314.909C276.978 314.927 277.089 314.888 277.258 314.83C277.585 314.718 278.502 314.409 279.736 314.049L299.986 373.171L320.238 432.292C321.885 431.812 323.211 431.369 323.944 431.119C324.317 430.991 324.63 430.882 324.78 430.829C324.82 430.815 324.857 430.802 324.884 430.793C324.914 430.782 324.929 430.777 324.947 430.771C324.978 430.759 324.971 430.762 324.947 430.77C324.903 430.786 324.713 430.852 324.445 430.942C324.171 431.033 323.766 431.166 323.264 431.322C322.273 431.629 320.741 432.077 318.818 432.522L302.44 372.39ZM299.986 373.171L365.798 385.888C365.066 389.108 364.173 391.621 363.573 393.162C362.983 394.675 362.473 395.751 362.395 395.917C362.352 396.006 362.323 396.068 362.428 395.85C362.494 395.711 362.689 395.308 362.9 394.857C363.308 393.989 364.155 392.157 365.033 389.853L301.605 369.272L238.178 348.691C238.813 347.026 239.373 345.835 239.478 345.611C239.539 345.482 239.578 345.403 239.489 345.587C239.439 345.692 239.252 346.078 239.057 346.492C238.673 347.308 237.869 349.037 237.023 351.205C236.167 353.401 235.057 356.572 234.176 360.453L299.986 373.171ZM301.605 369.272L365.032 389.857C367.735 382.778 369.039 376.179 369.688 371.144L302.919 363.815L236.15 356.486C236.262 355.612 236.434 354.597 236.708 353.432C236.975 352.3 237.421 350.674 238.179 348.688L301.605 369.272ZM302.919 363.815L369.689 371.14C373.713 339.96 359.742 302.934 324.445 283.059L289.4 335.972L254.355 388.885C245.64 383.979 241.007 377.589 238.743 372.851C236.458 368.068 235.368 362.546 236.148 356.489L302.919 363.815ZM289.4 335.972L324.445 283.059C315.326 277.924 301.983 272.172 285.334 270.497L278.039 332.131L270.742 393.765C262.094 392.894 256.504 390.096 254.353 388.885L289.4 335.972ZM278.039 332.131L285.334 270.497C266.73 268.625 250.112 272.246 236.938 277.609L264.095 334.328L291.251 391.046C286.922 392.808 279.756 394.672 270.742 393.765L278.039 332.131ZM264.095 334.328L236.937 277.609C228.138 281.191 221.371 285.57 216.651 289.054L258.672 337.456L300.693 385.859C299.365 386.839 296.154 389.051 291.251 391.046L264.095 334.328ZM258.672 337.456L216.65 289.055C217.069 288.745 217.434 288.487 217.25 288.618C217.215 288.643 216.754 288.971 216.228 289.358C215.218 290.102 212.847 291.874 210.139 294.37C205.455 298.687 193.536 310.766 190.474 330.458L257.034 339.256L323.595 348.053C320.659 366.94 309.258 378.34 305.213 382.069C302.822 384.272 300.801 385.772 300.134 386.263C299.78 386.524 299.49 386.73 299.619 386.638C299.637 386.625 299.78 386.522 299.936 386.41C300.102 386.29 300.371 386.096 300.694 385.857L258.672 337.456ZM257.034 339.256L190.474 330.456C181.531 387.966 247.73 417.688 292.067 394.89L259.317 340.741L226.568 286.592C250.077 274.503 276.068 277.818 294.144 288.56C314.124 300.434 327.497 322.966 323.595 348.055L257.034 339.256ZM259.317 340.741L292.065 394.892C296.004 392.866 299.029 390.873 300.893 389.576C301.85 388.911 302.639 388.331 303.173 387.934C303.674 387.561 304.129 387.214 304.242 387.128C304.451 386.968 304.333 387.06 304.157 387.19C303.954 387.341 303.5 387.676 302.883 388.103C301.693 388.927 299.391 390.456 296.221 392.079L263.578 337.875L230.935 283.671C227.003 285.684 223.973 287.669 222.079 288.983C221.108 289.655 220.307 290.242 219.757 290.651C219.235 291.038 218.773 291.391 218.64 291.492C218.41 291.667 218.523 291.581 218.679 291.465C218.868 291.324 219.31 290.997 219.916 290.576C221.079 289.767 223.385 288.228 226.571 286.59L259.317 340.741ZM263.578 337.875L296.219 392.08C289.797 395.368 282.43 397.097 275.198 397.097V335.097V273.097C259.791 273.097 244.665 276.642 230.937 283.669L263.578 337.875ZM275.198 335.097V397.097C275.967 397.097 274.731 397.115 273.062 397.017C271.247 396.91 267.781 396.619 263.444 395.638L279.458 335.422L295.472 275.206C285.048 272.849 275.704 273.097 275.198 273.097V335.097ZM279.458 335.422L263.443 395.638C262.096 395.333 257.04 394.089 251.104 390.535L287.721 338.535L324.338 286.534C313.246 279.893 302.628 276.824 295.475 275.206L279.458 335.422ZM287.721 338.535L251.104 390.535C238.173 382.793 232.167 370.151 232.995 357.983L300.104 361.866L367.213 365.748C369.328 334.671 353.407 303.938 324.339 286.535L287.721 338.535ZM300.104 361.866L232.995 357.984C233.456 351.21 235.694 346.815 235.279 347.715L297.146 372.001L359.014 396.287C361.617 390.649 366.258 379.798 367.213 365.748L300.104 361.866ZM260.996 375.64L195.873 391.079C199.457 403.929 206.454 412.472 210.014 416.387C211.446 417.962 212.969 419.451 212.536 419.02C212.522 419.006 212.157 418.644 211.69 418.155C211.198 417.641 210.455 416.846 209.587 415.836L262.287 377.329L314.986 338.821C313.137 336.67 311.478 335.037 311.288 334.847C310.601 334.161 311.868 335.401 313.064 336.714C316.149 340.107 322.74 348.083 326.119 360.201L260.996 375.64ZM262.287 377.329L292.853 432.553C306.421 426.168 314.154 417.327 317.061 413.794C319.857 410.397 322.504 406.3 321.526 407.748L264.437 374.99L207.349 342.232C205.801 344.524 207.842 341.375 209.94 338.827C212.15 336.142 219.092 328.048 231.72 322.105L262.287 377.329ZM264.437 374.99L321.527 407.747C324.945 402.684 327.171 398.086 328.344 395.557C328.967 394.213 329.499 392.996 329.812 392.275C330.21 391.362 330.294 391.168 330.397 390.937L268.282 367.193L206.168 343.449C205.904 344.035 205.669 344.57 205.483 344.995C205.39 345.209 205.301 345.413 205.225 345.588C205.142 345.779 205.083 345.913 205.017 346.065C204.891 346.355 204.812 346.534 204.752 346.669C204.695 346.798 204.679 346.832 204.693 346.803C204.709 346.768 204.923 346.305 205.308 345.59C205.691 344.877 206.361 343.694 207.348 342.233L264.437 374.99ZM268.282 367.193L330.397 390.937C330.061 391.683 329.771 392.258 329.573 392.632C329.378 393.003 329.247 393.228 329.23 393.258C329.214 393.283 329.268 393.193 329.449 392.897C329.538 392.753 329.643 392.583 329.782 392.36C329.851 392.249 329.923 392.134 330.005 392.003C330.083 391.877 330.174 391.731 330.265 391.586L271.964 360.696L213.662 329.807C213.002 330.866 209.183 336.743 206.168 343.45L268.282 367.193ZM271.964 360.696L330.265 391.585C330.53 391.161 330.728 390.856 330.872 390.642C331.016 390.429 331.081 390.34 331.074 390.35C331.067 390.36 330.962 390.501 330.758 390.744C330.554 390.987 330.225 391.363 329.765 391.836L279.716 350.431L229.668 309.025C222.146 316.756 216.916 324.584 213.662 329.808L271.964 360.696ZM279.716 350.431L216.972 328.141C217.878 325.969 218.774 324.236 219.437 323.041C220.095 321.851 220.647 320.973 220.906 320.566C221.134 320.209 221.312 319.946 221.089 320.281C220.989 320.431 220.454 321.227 219.888 322.114L277.846 353.549L335.803 384.985C335.555 385.374 335.356 385.667 335.595 385.309C335.711 385.136 336.231 384.36 336.791 383.484C337.845 381.833 340.289 377.923 342.462 372.721L279.716 350.431ZM277.846 353.549L219.887 322.116C218.652 324.052 217.69 325.74 217.202 326.601C216.99 326.975 216.682 327.525 216.627 327.623C216.5 327.847 216.488 327.867 216.522 327.81L275.811 357.058L335.1 386.305C335.471 385.666 335.791 385.098 335.997 384.732C336.091 384.564 336.21 384.354 336.265 384.254C336.339 384.124 336.384 384.044 336.419 383.983C336.491 383.855 336.46 383.912 336.371 384.062C336.278 384.219 336.084 384.545 335.804 384.982L277.846 353.549ZM275.811 357.058L216.519 327.813C213.603 332.839 211.112 337.996 210.014 340.205L271.147 366.024L332.28 391.843C334.186 388.008 334.628 387.117 335.101 386.303L275.811 357.058ZM271.147 366.024L210.016 340.202C209.402 341.439 207.452 345.286 205.718 349.695L268.931 370.832L332.144 391.968C331.998 392.337 331.879 392.618 331.801 392.795C331.725 392.97 331.681 393.063 331.688 393.048C331.69 393.042 331.703 393.014 331.73 392.961C331.756 392.907 331.792 392.832 331.841 392.731C331.891 392.629 331.951 392.509 332.024 392.359C332.1 392.206 332.18 392.046 332.279 391.846L271.147 366.024ZM268.931 370.832L205.719 349.693C206.319 348.164 206.858 347.016 206.874 346.982C207.093 346.509 206.48 347.813 205.985 348.965C204.724 351.905 202.132 358.428 201.267 367.107L268.226 372.781L335.185 378.455C334.392 386.404 332.022 392.287 331.029 394.601C330.668 395.441 330.201 396.436 330.566 395.648C330.726 395.301 331.41 393.833 332.143 391.97L268.931 370.832ZM268.226 372.781V434.781C273.099 434.781 283.859 434.59 296.181 430.909L275.456 371.927L254.732 312.945C258.754 311.744 262.121 311.237 264.335 311.007C266.498 310.782 267.984 310.781 268.226 310.781V372.781ZM275.456 371.927L296.185 430.908C301.86 429.212 309.603 426.289 317.522 421.25L279.329 370.222L241.137 319.193C244.159 317.27 246.854 315.955 248.888 315.075C250.971 314.174 252.926 313.485 254.728 312.947L275.456 371.927ZM279.329 370.222L317.52 421.251C322.991 417.77 327.899 413.741 332.222 409.254L281.948 368.081L231.675 326.908C234.412 324.066 237.593 321.448 241.138 319.192L279.329 370.222ZM281.948 368.081L332.222 409.254C346.534 394.396 351.085 378.109 352.729 367.896C354.196 358.794 353.93 349.499 353.93 348.352H286.689H219.448C219.448 350.931 219.461 351.269 219.441 351.974C219.429 352.381 219.429 351.398 219.706 349.682C220.247 346.323 222.428 336.507 231.675 326.908L281.948 368.081ZM286.689 348.352H353.93C353.93 348.352 353.93 348.192 353.965 347.067C353.991 346.226 354.054 344.372 354.059 342.401L286.818 342.244L219.577 342.088C219.577 342.054 219.577 342.126 219.571 342.378C219.564 342.657 219.555 342.96 219.538 343.522C219.51 344.433 219.448 346.312 219.448 348.352H286.689ZM286.818 342.244L286.615 280.244C269.157 280.293 254.769 286.36 254.09 286.616L279.458 344.034L304.827 401.452C305.695 401.126 304.283 401.695 302.084 402.293C300.019 402.854 294.539 404.223 287.02 404.244L286.818 342.244ZM279.458 344.034L254.087 286.617C239.157 292.225 205.442 309.087 197.657 348.028L263.785 359.267L329.912 370.506C327.666 381.74 321.39 389.826 315.97 394.589C311.058 398.904 306.663 400.762 304.83 401.451L279.458 344.034ZM263.785 359.267L197.657 348.028C195.023 361.208 196.606 372.254 197.901 378.715L264.023 367.453L330.146 356.191C330.342 357.171 331.442 362.847 329.912 370.505L263.785 359.267ZM264.023 367.453L197.901 378.716C198.843 383.414 200.121 387.18 200.879 389.276L264.667 369.662L328.455 350.049C328.695 350.712 329.504 352.988 330.146 356.191L264.023 367.453ZM264.667 369.662L200.88 389.28C201.491 390.968 202.166 392.551 201.988 392.123C201.985 392.113 201.944 392.017 201.891 391.886C201.836 391.751 201.751 391.544 201.651 391.288C201.453 390.787 201.143 389.98 200.795 388.969C199.614 385.532 196.421 375.488 198.348 362.456L264.973 370.832L331.598 379.208C333.585 365.771 330.307 355.327 328.99 351.498C328.289 349.461 327.593 347.817 327.57 347.763C327.313 347.145 327.91 348.541 328.453 350.045L264.667 369.662ZM264.973 370.832L198.347 362.468C199.233 356.463 200.937 351.67 202.328 348.427C203.726 345.171 205.152 342.694 206.027 341.261C206.898 339.834 207.63 338.783 207.729 338.64C208.208 337.95 207.337 339.198 206.851 339.926L264.137 372.391L321.423 404.856C321.088 405.359 320.385 406.368 321.037 405.429C321.308 405.038 322.216 403.729 323.247 402.038C324.283 400.34 325.857 397.592 327.372 394.063C328.882 390.546 330.672 385.477 331.599 379.196L264.973 370.832ZM264.137 372.391L206.84 339.942C207.881 338.379 209.523 336.126 211.905 333.591C214.257 331.087 217.901 327.697 223.079 324.438L260.996 375.64L298.914 426.842C311.196 419.109 318.179 409.726 321.434 404.84L264.137 372.391ZM249.764 348.352L185.084 331.4C185.43 330.28 185.73 329.47 185.838 329.181C185.9 329.014 185.989 328.791 185.728 329.452C185.56 329.882 185.141 330.95 184.687 332.215C184.217 333.53 183.607 335.34 183.013 337.496L248.181 352.77L313.35 368.043C312.965 369.439 312.601 370.503 312.393 371.081C312.205 371.608 312.067 371.948 312.184 371.65C312.196 371.62 312.345 371.243 312.437 371.006C312.557 370.698 312.73 370.254 312.924 369.738C313.307 368.718 313.866 367.172 314.442 365.303L249.764 348.352ZM248.181 352.77L183.013 337.495C180.012 348.378 179.628 358.629 180.232 366.929L247.322 362.775L314.412 358.621C314.485 359.623 314.505 360.84 314.39 362.281C314.277 363.702 314.006 365.664 313.35 368.044L248.181 352.77ZM247.322 362.775L180.232 366.93C182.553 398.79 203.964 428.875 236.65 442.426L264.224 385.879L291.798 329.331C299.991 332.728 305.152 337.608 308.214 341.753C311.345 345.993 313.904 351.643 314.412 358.621L247.322 362.775ZM264.224 385.879L236.65 442.426C261.31 452.649 288.872 452.318 312.693 442.672L285.655 385.905L258.619 329.138C268.73 325.044 280.867 324.8 291.798 329.332L264.224 385.879ZM285.655 385.905L312.695 442.672C317.871 440.575 323.781 437.697 329.879 433.603L290.304 383.479L250.728 333.356C253.874 331.243 256.722 329.906 258.617 329.139L285.655 385.905ZM290.304 383.479L329.88 433.603C328.276 434.68 330.719 433.045 331.41 432.563C332.893 431.527 336 429.29 339.45 426.022C347.328 418.561 356.258 406.344 358.55 389.435L291.828 381.747L225.107 374.059C227.28 358.023 235.781 346.448 243.093 339.523C246.26 336.524 249.05 334.528 250.203 333.723C250.564 333.47 252.665 332.056 250.727 333.356L290.304 383.479ZM291.828 381.747L358.55 389.438C361.305 369.122 353.316 345.623 331.392 330.575C309.293 315.407 281.31 314.712 259.477 324.823L289.658 380.227L319.839 435.631C299.163 445.206 272.351 444.635 251.091 430.043C230.007 415.571 222.525 393.1 225.107 374.056L291.828 381.747ZM289.658 380.227L259.472 324.825C255.736 326.556 252.821 328.293 250.897 329.521C249.002 330.729 247.55 331.782 246.979 332.198C246.816 332.317 246.678 332.418 246.588 332.484C246.513 332.54 246.419 332.609 246.417 332.611C246.344 332.665 246.508 332.543 246.732 332.381C247.143 332.084 248.464 331.134 250.291 330.006L287.721 381.512L325.152 433.017C327.301 431.69 328.939 430.52 329.667 429.994C330.05 429.717 330.372 429.48 330.457 429.416C330.622 429.294 330.496 429.388 330.371 429.48C330.117 429.664 328.986 430.49 327.417 431.491C325.82 432.51 323.238 434.056 319.844 435.629L289.658 380.227ZM287.721 381.512L250.292 330.005C253.021 328.319 255.29 327.297 256.746 326.706L283.836 383.451L310.926 440.197C315.031 438.531 319.988 436.208 325.151 433.018L287.721 381.512ZM283.836 383.451L256.747 326.705C271.241 320.823 283.822 323.187 290.346 325.52L266.031 383.324L241.716 441.128C259.584 447.518 285.057 450.697 310.926 440.197L283.836 383.451ZM266.031 383.324L290.349 325.52C294.102 326.863 296.79 328.245 297.955 328.867C298.57 329.195 298.986 329.436 299.053 329.473C299.09 329.496 299.089 329.495 298.996 329.441C298.948 329.413 298.902 329.385 298.82 329.338C298.749 329.296 298.65 329.238 298.546 329.177L262.545 381.542L226.545 433.907C226.724 434.012 226.626 433.955 226.938 434.138C227.126 434.248 227.407 434.412 227.729 434.598C228.362 434.963 229.35 435.525 230.541 436.162C232.86 437.401 236.73 439.345 241.713 441.127L266.031 383.324ZM262.545 381.542L298.544 329.176C305.767 333.397 310.363 338.754 313.102 343.659C315.877 348.632 317.643 354.731 317.343 361.622L250.156 359.137L182.968 356.652C181.646 387.047 197.921 417.178 226.547 433.909L262.545 381.542ZM250.156 359.137L317.343 361.622C317.233 364.153 316.894 366.132 316.625 367.391C316.358 368.637 316.105 369.425 316.062 369.554L251.659 351.73L187.257 333.906C185.698 338.695 183.398 346.786 182.968 356.651L250.156 359.137ZM251.659 351.73L316.061 369.556C315.413 371.547 314.786 373.069 314.453 373.85C314.282 374.25 314.149 374.545 314.103 374.648C314.085 374.687 314.026 374.818 314.142 374.564C314.248 374.329 314.785 373.16 315.366 371.726C315.981 370.213 316.829 367.971 317.619 365.211L252.604 349.391L187.588 333.571C187.929 332.38 188.274 331.331 188.587 330.446C188.9 329.564 189.19 328.818 189.425 328.243C189.656 327.673 189.851 327.224 189.969 326.955C190.03 326.818 190.077 326.711 190.106 326.647C190.133 326.586 190.15 326.549 190.145 326.562C190.141 326.568 190.137 326.577 190.126 326.602C190.118 326.621 190.1 326.658 190.083 326.696C190.048 326.773 189.99 326.901 189.922 327.052C189.789 327.348 189.571 327.835 189.317 328.429C189.061 329.029 188.74 329.803 188.392 330.707C188.043 331.615 187.654 332.689 187.258 333.904L251.659 351.73ZM252.604 349.391V411.391H252.862V349.391V287.391H252.604V349.391ZM252.862 349.391L187.091 362.282C188.151 366.885 189.523 370.47 190.133 372.02C190.438 372.796 190.743 373.534 190.777 373.618C190.887 373.883 190.754 373.567 190.582 373.121L253.949 352.38L317.316 331.639C316.956 330.702 316.623 329.896 316.53 329.669C316.362 329.26 316.464 329.505 316.573 329.784C316.711 330.134 317.019 330.934 317.376 332.009C317.737 333.097 318.202 334.628 318.634 336.5L252.862 349.391ZM253.949 352.38L190.583 373.121C190.111 371.897 189.784 370.895 189.863 371.133C189.866 371.143 189.867 371.145 189.877 371.175C189.884 371.198 189.897 371.235 189.912 371.277C189.94 371.36 189.984 371.495 190.039 371.655C190.146 371.967 190.324 372.48 190.551 373.101C190.98 374.268 191.79 376.384 193.018 378.922C194.231 381.431 196.224 385.133 199.299 389.244L254.65 354.04L310 318.836C312.905 322.72 314.751 326.168 315.834 328.404C316.93 330.671 317.624 332.499 317.945 333.373C318.235 334.162 318.478 334.902 318.33 334.462C318.313 334.41 317.889 333.126 317.316 331.639L253.949 352.38ZM254.65 354.04L199.292 389.234C228.97 428.922 285.727 421.624 310.498 391.49L256.91 354.04L203.322 316.589C216.971 299.984 236.995 292.793 254.812 292.558C273.163 292.316 295.577 299.549 310.007 318.846L254.65 354.04ZM256.91 354.04L310.492 391.496C322.459 376.942 324.643 361.597 324.472 351.965C324.31 342.901 322.085 335.902 321.034 332.867C319.893 329.57 318.629 326.846 318.529 326.624C317.762 324.925 319.198 327.922 320.293 331.214L256.006 349.391L191.721 367.568C192.535 370.018 193.347 371.935 193.69 372.732C193.895 373.21 194.072 373.606 194.177 373.841C194.269 374.045 194.38 374.29 194.383 374.298C194.643 374.874 193.765 373.012 192.921 370.577C192.168 368.403 190.154 362.264 190.007 353.994C189.851 345.157 191.851 330.54 203.326 316.584L256.91 354.04ZM256.006 349.391L320.293 331.214C319.613 329.169 318.832 327.027 318.575 326.309L254.725 345.753L190.877 365.196C191.486 366.898 191.589 367.176 191.721 367.568L256.006 349.391ZM254.725 345.753L318.577 326.316C318.796 326.928 318.953 327.402 318.956 327.413C319.023 327.615 318.852 327.094 318.705 326.668C318.404 325.788 317.398 322.86 315.656 319.326C311.663 311.226 303.188 298.72 286.527 290.191L253.889 344.398L221.251 398.604C205.137 390.356 196.986 378.26 193.227 370.635C191.601 367.337 190.69 364.662 190.478 364.043C189.668 361.682 190.838 365.087 190.875 365.189L254.725 345.753ZM253.889 344.398L286.539 290.197C266.871 280.125 248.254 281.809 239.406 283.414C230.936 284.952 224.357 287.758 224.184 287.827L250.925 344.713L277.667 401.599C277.635 401.612 277.284 401.753 276.799 401.936C276.301 402.125 275.534 402.407 274.577 402.727C272.781 403.329 269.564 404.32 265.379 405.08C257.564 406.498 239.989 408.201 221.239 398.598L253.889 344.398ZM250.925 344.713L224.183 287.828C224.326 287.77 224.74 287.607 225.375 287.389C225.974 287.182 227.119 286.806 228.694 286.4L246.794 346.112L264.894 405.824C270.453 404.391 275.054 402.644 277.669 401.599L250.925 344.713ZM246.794 346.112L228.703 286.398C231.937 285.565 225.755 287.043 221.364 288.596C218.487 289.614 213.893 291.424 208.744 294.438C203.607 297.445 196.478 302.488 190.124 310.448L244.278 347.199L298.432 383.951C292.339 391.584 285.559 396.351 280.821 399.125C276.072 401.904 271.93 403.521 269.521 404.373C267.033 405.253 265.077 405.77 264.404 405.945C264.039 406.04 263.763 406.107 263.862 406.083C263.87 406.081 263.878 406.079 263.895 406.075C263.909 406.071 263.931 406.066 263.954 406.06C263.998 406.049 264.068 406.032 264.148 406.012C264.302 405.974 264.565 405.908 264.884 405.826L246.794 346.112ZM244.278 347.199L190.121 310.452C173.571 331.188 175.161 354.092 180.377 368.376C185.402 382.135 199.06 401.996 226.816 409.234L245.115 349.575L263.416 289.915C290.22 296.905 303.142 315.974 307.829 328.805C312.706 342.162 314.353 364.003 298.435 383.947L244.278 347.199ZM245.115 349.575L226.818 409.235C237.285 411.964 246.461 411.879 252.82 411.245C259.065 410.623 263.934 409.334 266.611 408.543C269.284 407.754 271.401 406.956 271.671 406.856C272.776 406.446 270.987 407.127 269.287 407.676L247.052 349.164L224.817 290.652C222.829 291.294 220.731 292.093 221.514 291.803C221.566 291.784 222.03 291.611 222.653 291.395C223.291 291.173 224.309 290.831 225.583 290.455C227.923 289.763 232.456 288.552 238.37 287.963C244.397 287.362 253.252 287.265 263.413 289.914L245.115 349.575ZM247.052 349.164L269.273 407.681C269.492 407.61 269.689 407.546 269.821 407.503C269.987 407.449 270.027 407.436 270.106 407.41C270.236 407.368 270.115 407.408 269.895 407.476C269.487 407.603 268.119 408.024 266.224 408.465L249.764 348.352L233.304 288.238C230.49 288.893 228.215 289.575 226.904 289.983C226.234 290.192 225.662 290.377 225.342 290.481C225.198 290.528 225.012 290.588 224.956 290.607C224.912 290.621 224.882 290.631 224.861 290.638C224.839 290.645 224.83 290.648 224.831 290.648L247.052 349.164Z" fill="#15127D"/>
</g>
</svg>
