<svg width="898" height="590" viewBox="0 0 898 590" fill="none" xmlns="http://www.w3.org/2000/svg">
<path d="M63.3434 549.856L59.5334 542.49H118.08V559H46.1984V543.252L99.6654 484.324L103.475 491.69H47.0874V475.18H116.556V490.928L63.3434 549.856ZM159.485 560.27C152.458 560.27 146.362 558.958 141.197 556.333C136.117 553.708 132.18 549.941 129.386 545.03C126.592 540.119 125.195 534.193 125.195 527.25C125.195 520.307 126.592 514.381 129.386 509.47C132.18 504.559 136.075 500.792 141.07 498.167C146.15 495.542 151.95 494.23 158.469 494.23C165.158 494.23 170.831 495.542 175.487 498.167C180.229 500.707 183.827 504.263 186.282 508.835C188.738 513.322 189.965 518.487 189.965 524.329C189.965 525.853 189.923 527.377 189.838 528.901C189.754 530.425 189.627 531.695 189.457 532.711H139.165V521.154H179.932L169.645 525.091C169.645 520.011 168.714 516.116 166.851 513.407C165.073 510.698 162.279 509.343 158.469 509.343C155.76 509.343 153.432 509.978 151.484 511.248C149.622 512.518 148.182 514.508 147.166 517.217C146.235 519.926 145.769 523.398 145.769 527.631C145.769 531.78 146.32 535.166 147.42 537.791C148.521 540.331 150.087 542.194 152.119 543.379C154.151 544.48 156.607 545.03 159.485 545.03C162.703 545.03 165.243 544.395 167.105 543.125C169.053 541.855 170.492 540.077 171.423 537.791L188.695 543.506C187.51 547.147 185.436 550.237 182.472 552.777C179.594 555.232 176.122 557.095 172.058 558.365C168.079 559.635 163.888 560.27 159.485 560.27ZM202.043 559V495.5H221.093L221.982 509.216C223.591 504.475 225.961 500.792 229.094 498.167C232.311 495.542 236.375 494.23 241.286 494.23C242.895 494.23 244.249 494.357 245.35 494.611C246.535 494.865 247.467 495.204 248.144 495.627L245.985 513.407C245.138 513.068 244.038 512.814 242.683 512.645C241.413 512.391 239.847 512.264 237.984 512.264C235.444 512.264 233.073 512.814 230.872 513.915C228.671 515.016 226.893 516.667 225.538 518.868C224.268 520.985 223.633 523.694 223.633 526.996V559H202.043ZM286.095 494.23C292.784 494.23 298.626 495.542 303.621 498.167C308.701 500.707 312.638 504.475 315.432 509.47C318.311 514.381 319.75 520.307 319.75 527.25C319.75 534.193 318.311 540.162 315.432 545.157C312.638 550.068 308.701 553.835 303.621 556.46C298.626 559 292.784 560.27 286.095 560.27C279.576 560.27 273.776 559 268.696 556.46C263.616 553.835 259.637 550.068 256.758 545.157C253.964 540.162 252.567 534.193 252.567 527.25C252.567 520.307 253.964 514.381 256.758 509.47C259.637 504.475 263.616 500.707 268.696 498.167C273.776 495.542 279.576 494.23 286.095 494.23ZM286.095 509.597C283.64 509.597 281.523 510.19 279.745 511.375C277.967 512.56 276.613 514.465 275.681 517.09C274.75 519.715 274.284 523.101 274.284 527.25C274.284 531.399 274.75 534.785 275.681 537.41C276.613 539.95 277.967 541.855 279.745 543.125C281.523 544.31 283.64 544.903 286.095 544.903C288.635 544.903 290.794 544.31 292.572 543.125C294.35 541.855 295.705 539.95 296.636 537.41C297.568 534.785 298.033 531.399 298.033 527.25C298.033 523.101 297.568 519.715 296.636 517.09C295.705 514.465 294.35 512.56 292.572 511.375C290.794 510.19 288.635 509.597 286.095 509.597ZM343.223 559L319.093 475.18H342.334L356.558 541.347L371.544 475.18H391.356L406.723 541.22L420.693 475.18H443.172L418.915 559H395.166L385.26 518.36L381.45 497.913H381.196L377.513 518.36L367.734 559H343.223ZM482.546 518.741C482.546 515.778 481.7 513.449 480.006 511.756C478.398 509.978 476.196 509.089 473.402 509.089C470.608 509.089 468.195 509.809 466.163 511.248C464.216 512.603 462.861 515.058 462.099 518.614L443.811 514.296C444.997 508.2 448.129 503.332 453.209 499.691C458.289 496.05 465.444 494.23 474.672 494.23C480.853 494.23 486.102 495.161 490.42 497.024C494.823 498.802 498.167 501.511 500.453 505.152C502.824 508.708 504.009 513.111 504.009 518.36V541.601C504.009 544.903 505.491 546.554 508.454 546.554C509.978 546.554 511.206 546.385 512.137 546.046L510.867 558.365C508.327 559.55 505.237 560.143 501.596 560.143C498.294 560.143 495.373 559.635 492.833 558.619C490.293 557.518 488.304 555.91 486.864 553.793C485.425 551.592 484.705 548.84 484.705 545.538V544.776L487.118 543.887C487.118 547.528 486.018 550.576 483.816 553.031C481.7 555.486 478.906 557.307 475.434 558.492C472.048 559.677 468.492 560.27 464.766 560.27C460.448 560.27 456.681 559.593 453.463 558.238C450.246 556.883 447.748 554.936 445.97 552.396C444.277 549.771 443.43 546.554 443.43 542.744C443.43 538.172 444.785 534.404 447.494 531.441C450.288 528.393 454.649 526.276 460.575 525.091L484.578 520.138L484.451 531.568L472.259 534.108C469.719 534.616 467.814 535.378 466.544 536.394C465.359 537.325 464.766 538.765 464.766 540.712C464.766 542.575 465.444 543.972 466.798 544.903C468.153 545.834 469.762 546.3 471.624 546.3C473.064 546.3 474.418 546.088 475.688 545.665C477.043 545.242 478.228 544.607 479.244 543.76C480.26 542.829 481.065 541.686 481.657 540.331C482.25 538.976 482.546 537.368 482.546 535.505V518.741ZM547.329 560.27C540.979 560.27 535.053 559.254 529.549 557.222C524.131 555.105 519.643 552.1 516.087 548.205L526.247 536.267C528.364 538.976 531.158 541.262 534.629 543.125C538.185 544.903 542.122 545.792 546.44 545.792C549.065 545.792 551.224 545.411 552.917 544.649C554.611 543.887 555.457 542.702 555.457 541.093C555.457 539.908 555.034 538.976 554.187 538.299C553.341 537.537 551.647 536.902 549.107 536.394L540.217 534.616C532.259 533.007 526.586 530.637 523.199 527.504C519.897 524.287 518.246 520.096 518.246 514.931C518.246 511.46 519.305 508.158 521.421 505.025C523.538 501.808 526.798 499.225 531.2 497.278C535.603 495.246 541.233 494.23 548.091 494.23C554.526 494.23 560.199 495.161 565.109 497.024C570.02 498.887 573.915 501.596 576.793 505.152L566.506 516.836C564.474 514.296 561.85 512.306 558.632 510.867C555.415 509.428 552.198 508.708 548.98 508.708C546.948 508.708 545.213 508.92 543.773 509.343C542.419 509.682 541.403 510.19 540.725 510.867C540.048 511.544 539.709 512.391 539.709 513.407C539.709 514.508 540.217 515.481 541.233 516.328C542.334 517.09 544.324 517.767 547.202 518.36L558.759 520.646C565.279 521.831 569.978 523.99 572.856 527.123C575.735 530.256 577.174 534.023 577.174 538.426C577.174 542.575 576.074 546.3 573.872 549.602C571.671 552.904 568.369 555.529 563.966 557.476C559.564 559.339 554.018 560.27 547.329 560.27ZM614.919 475.307V536.394C614.919 539.442 615.639 541.643 617.078 542.998C618.602 544.268 620.677 544.903 623.301 544.903C625.333 544.903 627.069 544.691 628.508 544.268C630.032 543.76 631.387 543.04 632.572 542.109L634.858 555.444C632.742 556.968 630.075 558.153 626.857 559C623.64 559.847 620.338 560.27 616.951 560.27C612.125 560.27 607.934 559.593 604.378 558.238C600.907 556.883 598.198 554.724 596.25 551.761C594.388 548.798 593.414 544.861 593.329 539.95V481.276L614.919 475.307ZM633.842 495.5V510.867H582.407V495.5H633.842ZM674.803 560.27C667.775 560.27 661.679 558.958 656.515 556.333C651.435 553.708 647.498 549.941 644.704 545.03C641.91 540.119 640.513 534.193 640.513 527.25C640.513 520.307 641.91 514.381 644.704 509.47C647.498 504.559 651.392 500.792 656.388 498.167C661.468 495.542 667.267 494.23 673.787 494.23C680.475 494.23 686.148 495.542 690.805 498.167C695.546 500.707 699.144 504.263 701.6 508.835C704.055 513.322 705.283 518.487 705.283 524.329C705.283 525.853 705.24 527.377 705.156 528.901C705.071 530.425 704.944 531.695 704.775 532.711H654.483V521.154H695.25L684.963 525.091C684.963 520.011 684.031 516.116 682.169 513.407C680.391 510.698 677.597 509.343 673.787 509.343C671.077 509.343 668.749 509.978 666.802 511.248C664.939 512.518 663.5 514.508 662.484 517.217C661.552 519.926 661.087 523.398 661.087 527.631C661.087 531.78 661.637 535.166 662.738 537.791C663.838 540.331 665.405 542.194 667.437 543.379C669.469 544.48 671.924 545.03 674.803 545.03C678.02 545.03 680.56 544.395 682.423 543.125C684.37 541.855 685.809 540.077 686.741 537.791L704.013 543.506C702.827 547.147 700.753 550.237 697.79 552.777C694.911 555.232 691.44 557.095 687.376 558.365C683.396 559.635 679.205 560.27 674.803 560.27Z" fill="#15127D"/>
<g clip-path="url(#clip0_2001_252)">
<path d="M485.876 0C483.478 8.6166 476.258 16.4438 473.308 25.2855C465.484 48.7361 473.523 69.754 485.876 90H488.045C503.352 70.075 507.001 48.6668 501.32 24.9251C499.466 17.176 493.928 3.8681 485.876 0ZM535.764 62C530.408 68.373 521.728 72.567 516.006 79.036C505.066 91.405 505.397 107.024 505.397 122C511.36 121.2 516.762 116.84 520.942 113C531.31 103.474 535.122 94.963 538.427 82.17C540.16 75.463 541.558 68.422 537.933 62H535.764ZM453.34 92C453.34 98.4 452.38 105.526 453.62 111.83C455.37 120.718 460.378 127.853 465.589 135.231C470.218 141.787 478.028 149.422 486.96 150C489.144 134.061 485.297 120.223 475.795 106.769C470.859 99.78 462.861 92.266 453.34 92ZM496.721 174C514.548 171.825 533.017 160.037 533.595 142C515.635 142.057 497.263 157.056 496.721 174ZM457.678 240H459.847C462.302 230.016 469.988 219.845 475.8 211.235C478.192 207.692 482.387 203.946 483.405 199.816C484.845 193.974 482.934 188.516 481.817 182.911C480.613 176.862 478.533 171.264 471.797 177.675C470.647 178.77 469.645 179.928 468.794 181.236C460.292 194.299 460.523 208.383 459.804 223C459.52 228.759 457.695 234.17 457.678 240ZM451.17 266C443.306 268.256 436.803 278.602 430.525 283.617C420.18 291.88 407.994 298.256 395.647 303.418C387.818 306.691 379.601 309.928 370.915 310C375.086 292.756 387.201 277.234 398.876 263.745C402.437 259.631 407.347 256.655 410.156 251.986C413.377 246.631 420.185 233.587 415.04 227.898C410.936 223.36 404.295 231.888 401.643 234.333C390.803 244.329 379.235 254.447 370.072 265.745C360.921 277.028 351.679 288.548 343.487 300.475C338.838 307.243 335.023 314.858 329.287 320.964C308.694 342.882 283.046 355.282 253.01 362.451C240.947 365.331 229.473 368 216.911 368C220.536 374.375 234.508 376.767 241.546 378.71C271.027 386.848 302.366 387.002 331.867 378.872C365.289 369.661 399.089 354.675 426.187 334.218C454.976 312.485 476.395 283.342 494.822 254.014C504.278 238.965 512.462 223.537 519.182 207.275C521.759 201.034 526.129 194.637 527.088 188C523.315 188 519.149 187.562 515.471 188.46C511.923 189.326 509.262 191.548 506.227 193.29C500.068 196.824 494.698 199.719 489.977 205.036C480.369 215.857 475.668 229.038 467.753 240.765C462.689 248.268 452.564 257.177 451.17 266ZM221.249 354V356C233.317 356 244.988 356.216 256.73 353.545C262.734 352.179 268.266 349.575 273.74 346.999C284.331 342.015 296.285 332.722 302.898 323.522C318.745 301.478 321.784 273.748 336.98 251.235C343.237 241.965 350.465 230.646 359.793 223.782C363.781 220.848 367.993 217.253 372.255 214.715C375.94 212.52 379.639 211.754 381.76 208C357.773 208.002 335.567 222.64 323.467 241.236C317.841 249.882 315.426 259.417 311.58 268.725C303.332 288.692 294.311 308.44 279.578 325.036C277.004 327.935 275.317 331.1 272.183 333.617C263.876 340.287 253.561 345.088 243.412 348.71C236.179 351.291 229.148 353.919 221.249 354Z" fill="#15127D"/>
<path d="M65.072 420.5H348.144" stroke="#15127D" stroke-width="5"/>
<path d="M409.954 420.5H693.026" stroke="#15127D" stroke-width="5"/>
<mask id="mask0_2001_252" style="mask-type:luminance" maskUnits="userSpaceOnUse" x="348" y="392" width="62" height="57">
<path d="M401.285 432.001C400.526 430.625 400.554 428.838 399.807 427.459C399.194 426.328 397.285 426.49 397.066 427.843C396.952 428.542 397.343 429.268 397.521 429.922C397.982 431.617 398.489 433.299 398.974 434.99C399.188 435.739 399.369 436.783 400.126 437.176C400.856 437.554 401.87 437.023 402.577 436.794C404.155 436.285 405.763 435.833 407.353 435.361C408.028 435.161 409.106 434.956 409.594 434.416C410.404 433.517 409.763 432.087 408.645 431.916C407.95 431.81 407.245 432.235 406.579 432.39C405.738 432.584 404.954 432.93 404.126 433.171C404.426 431.849 405.258 430.549 405.745 429.272C406.397 427.564 406.824 425.629 407.058 423.815C408.456 412.983 403.123 401.369 393.539 395.972C390.055 394.01 386.178 392.533 382.178 392.131C377.383 391.648 372.657 392.527 368.234 394.328C366.285 395.121 364.506 396.205 362.811 397.456C362.213 397.899 361.299 398.45 361.174 399.256C360.975 400.532 362.432 401.268 363.457 400.741C364.964 399.966 366.192 398.656 367.718 397.875C371.37 396.005 375.25 395.097 379.337 395.097C380.75 395.097 382.213 395.109 383.597 395.422C386.502 396.079 389.282 396.991 391.861 398.535C399.929 403.365 404.887 412.411 404.244 421.866C403.995 425.503 402.795 428.732 401.285 432.001ZM365.135 435.64C365.339 436.373 365.948 436.772 366.426 437.329C367.365 436.887 368.006 435.834 368.577 434.99C370.158 432.647 371.262 429.772 372.421 427.193C373.437 424.935 374.797 422.793 376.103 420.696C378.36 417.074 380.876 413.493 383.856 410.431C383.401 411.52 382.62 412.553 381.985 413.549C381.261 414.683 380.626 415.893 379.95 417.058C378.255 419.978 376.788 423.002 375.287 426.024C374.502 427.604 373.717 429.186 373.07 430.832C372.807 431.499 372.438 432.052 372.365 432.781C374.788 432.781 377.257 432.626 379.596 431.927C380.906 431.536 382.312 430.957 383.468 430.222C384.432 429.609 385.295 428.904 386.088 428.081C391.152 422.823 390.828 415.137 390.828 408.352C390.828 406.313 390.952 404.274 390.957 402.244C388.518 402.251 385.861 403.184 383.597 404.034C376.595 406.665 369.487 411.45 367.924 419.267C367.372 422.028 367.614 424.712 368.162 427.453C368.312 428.201 368.547 428.946 368.807 429.662C368.939 430.03 369.172 430.427 369.112 430.832C369.031 431.383 368.577 431.94 368.276 432.391C367.448 433.635 366.405 434.84 365.135 435.64ZM353.903 408.352C353.441 409.848 352.74 411.248 352.321 412.77C351.438 415.97 351.22 419.464 351.462 422.775C352.187 432.737 359.266 442.107 368.363 445.879C375.227 448.725 382.94 448.681 389.795 445.905C391.435 445.241 392.967 444.47 394.443 443.479C395.11 443.032 395.849 442.62 395.968 441.747C396.14 440.475 394.955 439.691 393.798 440.227C393.112 440.544 392.506 441.113 391.861 441.512C390.644 442.263 389.301 442.914 387.976 443.451C382.287 445.76 375.843 445.352 370.17 443.324C368.94 442.884 367.808 442.199 366.684 441.542C358.98 437.039 353.903 428.153 354.296 419.137C354.405 416.612 355.021 414.119 355.799 411.73C356.06 410.926 356.511 410.2 356.743 409.391H357.001C357.238 410.415 357.711 411.4 358.088 412.38C358.291 412.905 358.449 413.587 358.789 414.04C359.316 414.745 360.506 414.7 361.049 414.04C362.032 412.844 360.549 410.603 360.146 409.391C359.741 408.172 359.299 406.963 358.865 405.753C358.674 405.219 358.576 404.678 358.029 404.398C357.11 403.927 355.945 404.361 355.065 404.713C353.751 405.238 352.301 405.759 350.933 406.112C350.161 406.311 348.94 406.545 348.417 407.199C347.785 407.991 348.302 409.326 349.255 409.575C349.865 409.734 350.616 409.35 351.192 409.164C352.087 408.875 352.985 408.565 353.903 408.352Z" fill="white"/>
</mask>
<g mask="url(#mask0_2001_252)">
<path d="M401.285 432.001L341.347 460.101L406.684 578.589L463.153 456.287L401.285 432.001ZM399.807 427.459L459.955 399.743V399.742L399.807 427.459ZM397.066 427.843L463.566 437.028V437.027L397.066 427.843ZM397.521 429.922L462.743 414.847V414.844L397.521 429.922ZM398.974 434.99L333.956 450.805L333.957 450.808L398.974 434.99ZM400.126 437.176L433.074 383.129L433.067 383.125L400.126 437.176ZM402.577 436.794L424.791 495.313L424.799 495.311L402.577 436.794ZM407.353 435.361L427.962 494.377L427.965 494.376L407.353 435.361ZM408.645 431.916L419.61 370.746H419.606L408.645 431.916ZM406.579 432.39L390.204 372.256L390.2 372.257L406.579 432.39ZM404.125 433.171L338.315 420.453L314.728 524.224L424.377 492.292L404.125 433.171ZM405.745 429.272L342.318 408.688L342.317 408.691L405.745 429.272ZM407.058 423.815L473.827 431.144L473.828 431.14L407.058 423.815ZM393.539 395.972L358.493 448.885H358.494L393.539 395.972ZM368.234 394.328L341.077 337.609H341.076L368.234 394.328ZM362.811 397.456L320.79 349.054L320.789 349.055L362.811 397.456ZM361.174 399.256L427.735 408.055V408.053L361.174 399.256ZM363.457 400.741L330.71 346.59L330.707 346.592L363.457 400.741ZM367.718 397.875L335.076 343.669L335.074 343.671L367.718 397.875ZM383.597 395.422L399.614 335.206H399.612L383.597 395.422ZM391.86 398.535L428.479 346.535L428.478 346.534L391.86 398.535ZM404.244 421.866L337.134 417.983V417.984L404.244 421.866ZM365.135 435.64L327.218 384.438L288.268 408.961L300.012 451.079L365.135 435.64ZM366.426 437.329L313.726 475.836L347.935 515.638L396.992 492.553L366.426 437.329ZM368.577 434.99L425.665 467.748L425.666 467.747L368.577 434.99ZM376.103 420.696L434.405 451.586V451.585L376.103 420.696ZM383.856 410.431L446.601 432.721L333.808 369.025L383.856 410.431ZM381.985 413.549L324.027 382.114L324.026 382.116L381.985 413.549ZM379.95 417.058L320.661 387.81L320.659 387.813L379.95 417.058ZM375.287 426.024L436.419 451.846L436.42 451.843L375.287 426.024ZM373.07 430.832L436.282 451.97L436.283 451.968L373.07 430.832ZM372.365 432.781L305.406 427.107L298.661 494.781H372.365V432.781ZM379.595 431.927L400.32 490.909L400.324 490.908L379.595 431.927ZM383.468 430.222L345.278 379.192L345.276 379.193L383.468 430.222ZM390.957 402.244L458.198 402.401L458.368 340.057L390.754 340.244L390.957 402.244ZM383.597 404.034L358.229 346.616L358.226 346.617L383.597 404.034ZM368.162 427.453L302.04 438.715V438.716L368.162 427.453ZM368.807 429.662L305.019 449.276L305.02 449.28L368.807 429.662ZM369.112 430.832L302.487 422.456L302.486 422.468L369.112 430.832ZM368.276 432.391L310.99 399.926L310.985 399.934L310.979 399.942L368.276 432.391ZM353.903 408.352L418.581 425.303L450.449 321.931L337.443 348.238L353.903 408.352ZM352.321 412.77L417.489 428.044V428.043L352.321 412.77ZM351.462 422.775L284.371 426.929V426.93L351.462 422.775ZM368.363 445.879L395.937 389.332V389.331L368.363 445.879ZM389.794 445.905L416.832 502.672H416.834L389.794 445.905ZM394.443 443.479L434.018 493.603H434.02L394.443 443.479ZM395.968 441.747L329.246 434.056V434.059L395.968 441.747ZM393.797 440.227L363.616 384.823L363.612 384.825L393.797 440.227ZM391.86 441.512L429.29 493.018L429.291 493.017L391.86 441.512ZM370.17 443.324L345.852 501.127L345.856 501.128L370.17 443.324ZM366.684 441.542L402.685 389.177L402.683 389.176L366.684 441.542ZM354.295 419.137L287.108 416.651V416.652L354.295 419.137ZM355.799 411.73L291.397 393.904L291.396 393.906L355.799 411.73ZM356.743 409.391V347.391H304.945L291.728 393.571L356.743 409.391ZM357.001 409.391L422.773 396.5L411.451 347.391H357.001V409.391ZM358.088 412.38L294.721 433.121H294.722L358.088 412.38ZM358.789 414.04L414.147 378.846L414.139 378.836L358.789 414.04ZM361.049 414.04L307.465 376.584L307.461 376.589L361.049 414.04ZM358.865 405.753L295.014 425.189L295.016 425.196L358.865 405.753ZM358.028 404.398L325.379 458.598L325.39 458.604L358.028 404.398ZM355.064 404.713L328.323 347.827L328.322 347.828L355.064 404.713ZM350.933 406.112L369.023 465.826L369.033 465.824L350.933 406.112ZM348.417 407.199L294.263 370.448L294.26 370.452L348.417 407.199ZM349.255 409.575L330.955 469.234L330.957 469.235L349.255 409.575ZM351.192 409.164L328.971 350.648L328.956 350.652L351.192 409.164ZM401.285 432.001L461.224 403.901C463.711 408.412 464.996 412.224 465.605 414.239C465.924 415.292 466.134 416.112 466.236 416.522C466.326 416.888 466.389 417.166 466.329 416.91C466.307 416.813 466.159 416.157 465.983 415.441C465.794 414.674 465.493 413.498 465.074 412.097C464.266 409.39 462.748 404.895 459.955 399.743L399.807 427.459L339.659 455.175C337.24 450.712 335.998 446.958 335.418 445.017C335.114 443.999 334.916 443.212 334.824 442.837C334.745 442.514 334.686 442.254 334.754 442.552C334.786 442.692 334.94 443.365 335.127 444.124C335.326 444.926 335.638 446.135 336.073 447.571C336.915 450.35 338.48 454.902 341.347 460.101L401.285 432.001ZM399.807 427.459L459.955 399.742C445.419 372.923 415.34 362.213 389.785 365.218C362.329 368.445 335.563 387.9 330.567 418.659L397.066 427.843L463.566 437.027C458.788 466.433 433.087 485.131 406.793 488.222C382.401 491.089 353.582 480.864 339.659 455.175L399.807 427.459ZM397.066 427.843L330.567 418.659C328.405 431.961 331.463 442.395 332.399 445.502C332.911 447.2 333.49 448.811 333.368 448.465C333.368 448.462 333.36 448.438 333.348 448.403C333.335 448.367 333.316 448.312 333.292 448.243C333.246 448.108 333.171 447.889 333.081 447.614C332.907 447.086 332.616 446.167 332.299 445.001L397.521 429.922L462.743 414.844C462.087 412.431 461.376 410.453 461.349 410.374C461.108 409.686 461.563 410.949 461.969 412.297C462.695 414.702 465.613 424.424 463.566 437.028L397.066 427.843ZM397.521 429.922L332.298 444.998C332.868 447.096 333.81 450.292 333.956 450.805L398.974 434.99L463.991 419.175C463.169 416.305 463.095 416.139 462.743 414.847L397.521 429.922ZM398.974 434.99L333.957 450.808C333.817 450.317 333.712 449.918 333.757 450.086C333.759 450.093 333.893 450.602 334.052 451.164C334.351 452.229 335.136 454.959 336.503 458.271C338.668 463.518 346.291 480.4 367.184 491.226L400.126 437.176L433.067 383.125C453.203 393.559 460.356 409.723 462.189 414.162C463.39 417.071 464.042 419.375 464.223 420.021C464.323 420.373 464.402 420.675 464.35 420.48C464.341 420.446 464.184 419.85 463.99 419.172L398.974 434.99ZM400.126 437.176L367.178 491.222C391.74 503.953 414.679 498.183 419.823 496.829C423.514 495.857 426.371 494.79 426.979 494.566C428.85 493.875 426.471 494.771 424.791 495.313L402.577 436.794L380.361 378.276C378.328 378.932 375.558 379.979 377.018 379.441C377.213 379.369 379.639 378.453 382.896 377.595C387.173 376.469 409.241 370.776 433.074 383.129L400.126 437.176ZM402.577 436.794L424.799 495.311C424.752 495.325 424.891 495.28 425.462 495.112C425.75 495.026 426.042 494.941 426.483 494.812C426.884 494.695 427.409 494.541 427.962 494.377L407.353 435.361L386.745 376.345C386.531 376.408 382.994 377.426 380.355 378.278L402.577 436.794ZM407.353 435.361L427.965 494.376C427.195 494.605 425.496 495.069 427.086 494.633C427.722 494.459 429.743 493.904 432.206 493.05C434.613 492.216 438.698 490.673 443.375 488.122C447.983 485.607 454.834 481.216 461.279 474.074L409.594 434.416L357.908 394.757C364.109 387.886 370.642 383.722 374.89 381.405C379.206 379.05 382.888 377.672 384.88 376.982C386.929 376.272 388.524 375.84 388.752 375.777C389.935 375.453 387.85 376.017 386.743 376.346L407.353 435.361ZM409.594 434.416L461.279 474.074C479.757 453.6 479.916 428.713 472.846 411.231C466.138 394.644 448.878 375.207 419.61 370.746L408.645 431.916L397.679 493.086C369.531 488.796 353.149 470.159 346.839 454.555C340.167 438.056 340.24 414.333 357.907 394.758L409.594 434.416ZM408.645 431.916L419.606 370.746C410.39 369.341 402.483 369.916 396.822 370.805C391.367 371.663 387.192 372.951 385.284 373.57C384.087 373.958 381.505 374.874 383.155 374.295C383.524 374.165 386.378 373.142 390.204 372.256L406.579 432.39L422.954 492.523C427.113 491.56 430.305 490.426 431.015 490.177C431.178 490.119 432.076 489.8 431.532 489.993C431.405 490.038 430.768 490.265 429.917 490.541C428.356 491.048 424.529 492.239 419.422 493.042C414.11 493.877 406.553 494.438 397.683 493.087L408.645 431.916ZM406.579 432.39L390.2 372.257C387.857 372.8 385.911 373.364 384.512 373.798C383.152 374.22 382.058 374.599 381.608 374.755C381.484 374.799 381.375 374.837 381.306 374.861C381.195 374.9 381.224 374.89 381.169 374.909C381.117 374.927 381.228 374.888 381.397 374.83C381.724 374.718 382.641 374.409 383.875 374.049L404.125 433.171L424.377 492.292C426.024 491.812 427.35 491.369 428.083 491.119C428.456 490.991 428.769 490.882 428.919 490.829C428.959 490.815 428.996 490.802 429.023 490.793C429.053 490.782 429.069 490.777 429.086 490.771C429.117 490.759 429.11 490.762 429.086 490.77C429.043 490.786 428.852 490.852 428.584 490.942C428.311 491.033 427.905 491.166 427.403 491.322C426.413 491.629 424.88 492.077 422.957 492.522L406.579 432.39ZM404.125 433.171L469.937 445.888C469.205 449.108 468.313 451.621 467.712 453.162C467.122 454.675 466.612 455.751 466.534 455.917C466.492 456.006 466.462 456.068 466.567 455.85C466.634 455.711 466.828 455.308 467.039 454.857C467.447 453.989 468.294 452.157 469.173 449.853L405.745 429.272L342.317 408.691C342.952 407.026 343.512 405.835 343.617 405.611C343.678 405.482 343.717 405.403 343.628 405.587C343.578 405.692 343.392 406.078 343.196 406.492C342.812 407.308 342.008 409.037 341.162 411.205C340.306 413.401 339.197 416.572 338.315 420.453L404.125 433.171ZM405.745 429.272L469.171 449.857C471.874 442.778 473.178 436.179 473.827 431.144L407.058 423.815L340.289 416.486C340.401 415.612 340.573 414.597 340.847 413.432C341.114 412.3 341.56 410.674 342.318 408.688L405.745 429.272ZM407.058 423.815L473.828 431.14C477.852 399.96 463.881 362.934 428.584 343.059L393.539 395.972L358.494 448.885C349.779 443.979 345.146 437.589 342.882 432.851C340.597 428.068 339.507 422.546 340.288 416.489L407.058 423.815ZM393.539 395.972L428.584 343.059C419.465 337.924 406.122 332.172 389.473 330.497L382.178 392.131L374.881 453.765C366.233 452.894 360.643 450.096 358.493 448.885L393.539 395.972ZM382.178 392.131L389.473 330.497C370.869 328.625 354.251 332.246 341.077 337.609L368.234 394.328L395.391 451.046C391.061 452.808 383.896 454.672 374.881 453.765L382.178 392.131ZM368.234 394.328L341.076 337.609C332.277 341.191 325.51 345.57 320.79 349.054L362.811 397.456L404.833 445.859C403.504 446.839 400.293 449.051 395.391 451.046L368.234 394.328ZM362.811 397.456L320.789 349.055C321.209 348.745 321.573 348.487 321.39 348.618C321.354 348.643 320.893 348.971 320.367 349.358C319.357 350.102 316.986 351.874 314.278 354.37C309.594 358.687 297.675 370.766 294.614 390.458L361.174 399.256L427.735 408.053C424.798 426.94 413.397 438.34 409.352 442.069C406.962 444.272 404.94 445.772 404.273 446.263C403.919 446.524 403.629 446.73 403.758 446.638C403.776 446.625 403.919 446.522 404.076 446.41C404.241 446.29 404.51 446.096 404.834 445.857L362.811 397.456ZM361.174 399.256L294.614 390.456C285.67 447.966 351.869 477.688 396.206 454.89L363.457 400.741L330.707 346.592C354.216 334.503 380.207 337.818 398.283 348.56C418.263 360.434 431.636 382.966 427.735 408.055L361.174 399.256ZM363.457 400.741L396.204 454.892C400.143 452.866 403.168 450.873 405.032 449.576C405.989 448.911 406.778 448.331 407.312 447.934C407.813 447.561 408.268 447.214 408.381 447.128C408.59 446.968 408.472 447.06 408.297 447.19C408.093 447.341 407.639 447.676 407.022 448.103C405.833 448.927 403.53 450.456 400.36 452.079L367.718 397.875L335.074 343.671C331.142 345.684 328.113 347.669 326.218 348.983C325.247 349.655 324.446 350.242 323.896 350.651C323.374 351.038 322.912 351.391 322.779 351.492C322.549 351.667 322.662 351.581 322.818 351.465C323.007 351.324 323.449 350.997 324.055 350.576C325.218 349.767 327.524 348.228 330.71 346.59L363.457 400.741ZM367.718 397.875L400.358 452.08C393.936 455.368 386.569 457.097 379.337 457.097V395.097V333.097C363.93 333.097 348.804 336.642 335.076 343.669L367.718 397.875ZM379.337 395.097V457.097C380.106 457.097 378.87 457.115 377.201 457.017C375.386 456.91 371.92 456.619 367.583 455.638L383.597 395.422L399.612 335.206C389.187 332.849 379.843 333.097 379.337 333.097V395.097ZM383.597 395.422L367.582 455.638C366.235 455.333 361.179 454.089 355.243 450.535L391.86 398.535L428.478 346.534C417.385 339.893 406.767 336.824 399.614 335.206L383.597 395.422ZM391.86 398.535L355.243 450.535C342.312 442.793 336.306 430.151 337.134 417.983L404.244 421.866L471.352 425.748C473.467 394.671 457.546 363.938 428.479 346.535L391.86 398.535ZM404.244 421.866L337.134 417.984C337.595 411.21 339.833 406.815 339.418 407.715L401.285 432.001L463.153 456.287C465.756 450.649 470.397 439.798 471.352 425.748L404.244 421.866ZM365.135 435.64L300.012 451.079C303.596 463.929 310.593 472.472 314.154 476.387C315.585 477.962 317.108 479.451 316.675 479.02C316.661 479.006 316.297 478.644 315.829 478.155C315.337 477.641 314.594 476.846 313.726 475.836L366.426 437.329L419.126 398.821C417.277 396.67 415.617 395.037 415.427 394.847C414.74 394.161 416.008 395.401 417.203 396.714C420.288 400.107 426.879 408.083 430.258 420.201L365.135 435.64ZM366.426 437.329L396.992 492.553C410.56 486.168 418.293 477.327 421.2 473.794C423.996 470.397 426.644 466.3 425.665 467.748L368.577 434.99L311.488 402.232C309.94 404.524 311.981 401.375 314.079 398.827C316.289 396.142 323.231 388.048 335.859 382.105L366.426 437.329ZM368.577 434.99L425.666 467.747C429.084 462.684 431.31 458.086 432.483 455.557C433.106 454.213 433.638 452.996 433.951 452.275C434.349 451.362 434.433 451.168 434.536 450.937L372.421 427.193L310.307 403.449C310.043 404.035 309.808 404.57 309.622 404.995C309.529 405.209 309.44 405.413 309.364 405.588C309.281 405.779 309.222 405.913 309.156 406.065C309.03 406.355 308.951 406.534 308.891 406.669C308.834 406.798 308.818 406.832 308.832 406.803C308.848 406.768 309.062 406.305 309.447 405.59C309.831 404.877 310.5 403.694 311.487 402.233L368.577 434.99ZM372.421 427.193L434.536 450.937C434.201 451.683 433.91 452.258 433.713 452.632C433.517 453.003 433.386 453.228 433.369 453.258C433.354 453.283 433.407 453.193 433.588 452.897C433.677 452.753 433.782 452.583 433.921 452.36C433.99 452.249 434.062 452.134 434.144 452.003C434.222 451.877 434.313 451.731 434.405 451.586L376.103 420.696L317.801 389.807C317.141 390.866 313.322 396.743 310.307 403.45L372.421 427.193ZM376.103 420.696L434.405 451.585C434.669 451.161 434.868 450.856 435.011 450.642C435.155 450.429 435.22 450.34 435.214 450.35C435.206 450.36 435.101 450.501 434.897 450.744C434.693 450.987 434.364 451.363 433.905 451.836L383.856 410.431L333.808 369.025C326.285 376.756 321.056 384.584 317.801 389.808L376.103 420.696ZM383.856 410.431L321.111 388.141C322.018 385.969 322.913 384.236 323.576 383.041C324.234 381.851 324.786 380.973 325.046 380.566C325.273 380.209 325.451 379.946 325.228 380.281C325.128 380.431 324.593 381.227 324.027 382.114L381.985 413.549L439.942 444.985C439.694 445.374 439.495 445.667 439.734 445.309C439.85 445.136 440.371 444.36 440.93 443.484C441.984 441.833 444.428 437.923 446.601 432.721L383.856 410.431ZM381.985 413.549L324.026 382.116C322.791 384.052 321.829 385.74 321.341 386.601C321.129 386.975 320.821 387.525 320.766 387.623C320.639 387.847 320.627 387.867 320.661 387.81L379.95 417.058L439.239 446.305C439.61 445.666 439.93 445.098 440.136 444.732C440.231 444.564 440.349 444.354 440.404 444.254C440.478 444.124 440.523 444.044 440.558 443.983C440.63 443.855 440.599 443.912 440.51 444.062C440.417 444.219 440.223 444.545 439.943 444.982L381.985 413.549ZM379.95 417.058L320.659 387.813C317.742 392.839 315.251 397.996 314.154 400.205L375.287 426.024L436.42 451.843C438.325 448.008 438.768 447.117 439.24 446.303L379.95 417.058ZM375.287 426.024L314.155 400.202C313.541 401.439 311.591 405.286 309.857 409.695L373.07 430.832L436.283 451.968C436.138 452.337 436.018 452.618 435.94 452.795C435.864 452.97 435.82 453.063 435.827 453.048C435.83 453.042 435.843 453.014 435.869 452.961C435.895 452.907 435.932 452.832 435.98 452.731C436.03 452.629 436.09 452.509 436.164 452.359C436.24 452.206 436.319 452.046 436.419 451.846L375.287 426.024ZM373.07 430.832L309.858 409.693C310.459 408.164 310.998 407.016 311.013 406.982C311.232 406.509 310.619 407.813 310.125 408.965C308.863 411.905 306.271 418.428 305.406 427.107L372.365 432.781L439.324 438.455C438.531 446.404 436.161 452.287 435.168 454.601C434.807 455.441 434.341 456.436 434.705 455.648C434.865 455.301 435.549 453.833 436.282 451.97L373.07 430.832ZM372.365 432.781V494.781C377.238 494.781 387.998 494.59 400.32 490.909L379.595 431.927L358.871 372.945C362.894 371.744 366.26 371.237 368.475 371.007C370.637 370.782 372.123 370.781 372.365 370.781V432.781ZM379.595 431.927L400.324 490.908C406 489.212 413.742 486.289 421.661 481.25L383.468 430.222L345.276 379.193C348.298 377.27 350.993 375.955 353.028 375.075C355.11 374.174 357.065 373.485 358.867 372.947L379.595 431.927ZM383.468 430.222L421.659 481.251C427.131 477.77 432.038 473.741 436.361 469.254L386.087 428.081L335.814 386.908C338.551 384.066 341.732 381.448 345.278 379.192L383.468 430.222ZM386.087 428.081L436.361 469.254C450.674 454.396 455.224 438.109 456.868 427.896C458.335 418.794 458.069 409.499 458.069 408.352H390.828H323.587C323.587 410.931 323.6 411.269 323.58 411.974C323.568 412.381 323.568 411.398 323.845 409.682C324.386 406.323 326.567 396.507 335.814 386.908L386.087 428.081ZM390.828 408.352H458.069C458.069 408.352 458.069 408.192 458.104 407.067C458.13 406.226 458.193 404.372 458.198 402.401L390.957 402.244L323.716 402.088C323.716 402.054 323.716 402.126 323.711 402.378C323.703 402.657 323.694 402.96 323.677 403.522C323.649 404.433 323.587 406.312 323.587 408.352H390.828ZM390.957 402.244L390.754 340.244C373.296 340.293 358.908 346.36 358.229 346.616L383.597 404.034L408.966 461.452C409.834 461.126 408.422 461.695 406.223 462.293C404.158 462.854 398.678 464.223 391.159 464.244L390.957 402.244ZM383.597 404.034L358.226 346.617C343.296 352.225 309.581 369.087 301.796 408.028L367.924 419.267L434.051 430.506C431.805 441.74 425.529 449.826 420.109 454.589C415.197 458.904 410.802 460.762 408.969 461.451L383.597 404.034ZM367.924 419.267L301.796 408.028C299.162 421.208 300.746 432.254 302.04 438.715L368.162 427.453L434.285 416.191C434.482 417.171 435.581 422.847 434.051 430.505L367.924 419.267ZM368.162 427.453L302.04 438.716C302.982 443.414 304.26 447.18 305.019 449.276L368.807 429.662L432.594 410.049C432.834 410.712 433.643 412.988 434.285 416.191L368.162 427.453ZM368.807 429.662L305.02 449.28C305.63 450.968 306.305 452.551 306.127 452.123C306.124 452.113 306.084 452.017 306.03 451.886C305.975 451.751 305.891 451.544 305.79 451.288C305.592 450.787 305.282 449.98 304.934 448.969C303.753 445.532 300.56 435.488 302.487 422.456L369.112 430.832L435.737 439.208C437.724 425.771 434.446 415.327 433.129 411.498C432.429 409.461 431.732 407.817 431.709 407.763C431.452 407.145 432.049 408.541 432.592 410.045L368.807 429.662ZM369.112 430.832L302.486 422.468C303.372 416.463 305.076 411.67 306.468 408.427C307.865 405.171 309.292 402.694 310.166 401.261C311.037 399.834 311.769 398.783 311.868 398.64C312.347 397.95 311.476 399.198 310.99 399.926L368.276 432.391L425.562 464.856C425.227 465.359 424.524 466.368 425.176 465.429C425.447 465.038 426.355 463.729 427.387 462.038C428.422 460.34 429.996 457.592 431.511 454.063C433.021 450.546 434.811 445.477 435.739 439.196L369.112 430.832ZM368.276 432.391L310.979 399.942C312.02 398.379 313.662 396.126 316.044 393.591C318.396 391.087 322.04 387.697 327.218 384.438L365.135 435.64L403.053 486.842C415.335 479.109 422.319 469.726 425.573 464.84L368.276 432.391ZM353.903 408.352L289.223 391.4C289.569 390.28 289.869 389.47 289.977 389.181C290.039 389.014 290.128 388.791 289.868 389.452C289.7 389.882 289.28 390.95 288.826 392.215C288.356 393.53 287.746 395.34 287.152 397.496L352.321 412.77L417.489 428.043C417.104 429.439 416.74 430.503 416.533 431.081C416.344 431.608 416.206 431.948 416.323 431.65C416.335 431.62 416.484 431.243 416.576 431.006C416.696 430.698 416.869 430.254 417.063 429.738C417.446 428.718 418.005 427.172 418.581 425.303L353.903 408.352ZM352.321 412.77L287.152 397.495C284.151 408.378 283.767 418.629 284.371 426.929L351.462 422.775L418.551 418.621C418.625 419.623 418.644 420.84 418.529 422.281C418.416 423.702 418.145 425.664 417.489 428.044L352.321 412.77ZM351.462 422.775L284.371 426.93C286.692 458.79 308.103 488.875 340.789 502.426L368.363 445.879L395.937 389.331C404.13 392.728 409.291 397.608 412.353 401.753C415.484 405.993 418.043 411.643 418.551 418.621L351.462 422.775ZM368.363 445.879L340.789 502.426C365.449 512.649 393.011 512.318 416.832 502.672L389.794 445.905L362.758 389.138C372.869 385.044 385.006 384.8 395.937 389.332L368.363 445.879ZM389.794 445.905L416.834 502.672C422.01 500.575 427.92 497.697 434.018 493.603L394.443 443.479L354.867 393.356C358.013 391.243 360.861 389.906 362.756 389.139L389.794 445.905ZM394.443 443.479L434.02 493.603C432.416 494.68 434.858 493.045 435.549 492.563C437.032 491.527 440.14 489.29 443.589 486.022C451.468 478.561 460.398 466.344 462.689 449.435L395.968 441.747L329.246 434.059C331.419 418.023 339.92 406.448 347.232 399.523C350.399 396.524 353.189 394.528 354.342 393.723C354.703 393.47 356.804 392.056 354.866 393.356L394.443 443.479ZM395.968 441.747L462.689 449.438C465.444 429.122 457.455 405.623 435.531 390.575C413.432 375.407 385.449 374.712 363.616 384.823L393.797 440.227L423.978 495.631C403.302 505.206 376.49 504.635 355.23 490.043C334.146 475.571 326.664 453.1 329.246 434.056L395.968 441.747ZM393.797 440.227L363.612 384.825C359.875 386.556 356.96 388.293 355.036 389.521C353.142 390.729 351.689 391.782 351.118 392.198C350.955 392.317 350.817 392.418 350.727 392.484C350.653 392.54 350.558 392.609 350.556 392.611C350.483 392.665 350.647 392.543 350.872 392.381C351.283 392.084 352.604 391.134 354.43 390.006L391.86 441.512L429.291 493.017C431.441 491.69 433.078 490.52 433.806 489.994C434.189 489.717 434.511 489.48 434.596 489.416C434.761 489.294 434.636 489.388 434.51 489.48C434.256 489.664 433.125 490.49 431.557 491.491C429.959 492.51 427.377 494.056 423.983 495.629L393.797 440.227ZM391.86 441.512L354.431 390.005C357.16 388.319 359.43 387.297 360.885 386.706L387.976 443.451L415.065 500.197C419.17 498.531 424.128 496.208 429.29 493.018L391.86 441.512ZM387.976 443.451L360.886 386.705C375.38 380.823 387.962 383.187 394.485 385.52L370.17 443.324L345.856 501.128C363.723 507.518 389.196 510.697 415.065 500.197L387.976 443.451ZM370.17 443.324L394.488 385.52C398.241 386.863 400.929 388.245 402.094 388.867C402.709 389.195 403.126 389.436 403.192 389.473C403.23 389.496 403.229 389.495 403.135 389.441C403.088 389.413 403.041 389.385 402.96 389.338C402.888 389.296 402.789 389.238 402.685 389.177L366.684 441.542L330.684 493.907C330.863 494.012 330.765 493.955 331.077 494.138C331.265 494.248 331.546 494.412 331.868 494.598C332.501 494.963 333.489 495.525 334.681 496.162C336.999 497.401 340.869 499.345 345.852 501.127L370.17 443.324ZM366.684 441.542L402.683 389.176C409.906 393.397 414.502 398.754 417.241 403.659C420.016 408.632 421.782 414.731 421.482 421.622L354.295 419.137L287.108 416.652C285.785 447.047 302.06 477.178 330.686 493.909L366.684 441.542ZM354.295 419.137L421.482 421.622C421.372 424.153 421.033 426.132 420.764 427.391C420.498 428.637 420.244 429.425 420.202 429.554L355.799 411.73L291.396 393.906C289.837 398.695 287.537 406.786 287.108 416.651L354.295 419.137ZM355.799 411.73L420.2 429.556C419.552 431.547 418.925 433.069 418.592 433.85C418.421 434.25 418.288 434.545 418.242 434.648C418.224 434.687 418.165 434.818 418.281 434.564C418.387 434.329 418.924 433.16 419.505 431.726C420.12 430.213 420.968 427.971 421.758 425.211L356.743 409.391L291.728 393.571C292.068 392.38 292.413 391.331 292.726 390.446C293.039 389.564 293.329 388.818 293.564 388.243C293.795 387.673 293.99 387.224 294.108 386.955C294.169 386.818 294.217 386.711 294.245 386.647C294.272 386.586 294.289 386.549 294.284 386.562C294.281 386.568 294.276 386.577 294.265 386.602C294.257 386.621 294.239 386.658 294.222 386.696C294.187 386.773 294.129 386.901 294.062 387.052C293.928 387.348 293.71 387.835 293.456 388.429C293.2 389.029 292.879 389.803 292.531 390.707C292.182 391.615 291.793 392.689 291.397 393.904L355.799 411.73ZM356.743 409.391V471.391H357.001V409.391V347.391H356.743V409.391ZM357.001 409.391L291.23 422.282C292.29 426.885 293.662 430.47 294.272 432.02C294.577 432.796 294.883 433.534 294.916 433.618C295.026 433.883 294.893 433.567 294.721 433.121L358.088 412.38L421.455 391.639C421.095 390.702 420.762 389.896 420.669 389.669C420.501 389.26 420.603 389.505 420.712 389.784C420.85 390.134 421.158 390.934 421.515 392.009C421.876 393.097 422.341 394.628 422.773 396.5L357.001 409.391ZM358.088 412.38L294.722 433.121C294.25 431.897 293.923 430.895 294.002 431.133C294.005 431.143 294.006 431.145 294.016 431.175C294.024 431.198 294.037 431.235 294.051 431.277C294.079 431.36 294.123 431.495 294.179 431.655C294.285 431.967 294.463 432.48 294.691 433.101C295.119 434.268 295.929 436.384 297.157 438.922C298.37 441.431 300.363 445.133 303.438 449.244L358.789 414.04L414.139 378.836C417.044 382.72 418.89 386.168 419.973 388.404C421.069 390.671 421.763 392.499 422.084 393.373C422.374 394.162 422.617 394.902 422.469 394.462C422.452 394.41 422.028 393.126 421.455 391.639L358.088 412.38ZM358.789 414.04L303.431 449.234C333.109 488.922 389.866 481.624 414.637 451.49L361.049 414.04L307.461 376.589C321.11 359.984 341.135 352.793 358.951 352.558C377.302 352.316 399.716 359.549 414.147 378.846L358.789 414.04ZM361.049 414.04L414.631 451.496C426.598 436.942 428.782 421.597 428.611 411.965C428.449 402.901 426.224 395.902 425.173 392.867C424.032 389.57 422.769 386.846 422.668 386.624C421.901 384.925 423.337 387.922 424.432 391.214L360.145 409.391L295.86 427.568C296.674 430.018 297.486 431.935 297.829 432.732C298.034 433.21 298.211 433.606 298.316 433.841C298.408 434.045 298.519 434.29 298.522 434.298C298.783 434.874 297.904 433.012 297.06 430.577C296.308 428.403 294.294 422.264 294.146 413.994C293.99 405.157 295.99 390.54 307.465 376.584L361.049 414.04ZM360.145 409.391L424.432 391.214C423.752 389.169 422.971 387.027 422.714 386.309L358.865 405.753L295.016 425.196C295.625 426.898 295.728 427.176 295.86 427.568L360.145 409.391ZM358.865 405.753L422.717 386.316C422.936 386.928 423.092 387.402 423.095 387.413C423.162 387.615 422.991 387.094 422.844 386.668C422.543 385.788 421.538 382.86 419.795 379.326C415.803 371.226 407.327 358.72 390.666 350.191L358.028 404.398L325.39 458.604C309.276 450.356 301.125 438.26 297.366 430.635C295.74 427.337 294.829 424.662 294.617 424.043C293.807 421.682 294.977 425.087 295.014 425.189L358.865 405.753ZM358.028 404.398L390.678 350.197C371.01 340.125 352.393 341.809 343.546 343.414C335.075 344.952 328.497 347.758 328.323 347.827L355.064 404.713L381.806 461.599C381.774 461.612 381.423 461.753 380.938 461.936C380.44 462.125 379.674 462.407 378.716 462.727C376.92 463.329 373.703 464.32 369.518 465.08C361.703 466.498 344.128 468.201 325.379 458.598L358.028 404.398ZM355.064 404.713L328.322 347.828C328.465 347.77 328.879 347.607 329.514 347.389C330.114 347.182 331.258 346.806 332.834 346.4L350.933 406.112L369.033 465.824C374.593 464.391 379.193 462.644 381.808 461.599L355.064 404.713ZM350.933 406.112L332.842 346.398C336.076 345.565 329.895 347.043 325.503 348.596C322.626 349.614 318.032 351.424 312.884 354.438C307.746 357.445 300.618 362.488 294.263 370.448L348.417 407.199L402.571 443.951C396.478 451.584 389.698 456.351 384.961 459.125C380.211 461.904 376.07 463.521 373.66 464.373C371.172 465.253 369.216 465.77 368.543 465.945C368.179 466.04 367.902 466.107 368.001 466.083C368.009 466.081 368.017 466.079 368.034 466.075C368.048 466.071 368.07 466.066 368.093 466.06C368.137 466.049 368.207 466.032 368.287 466.012C368.441 465.974 368.705 465.908 369.023 465.826L350.933 406.112ZM348.417 407.199L294.26 370.452C277.71 391.188 279.3 414.092 284.517 428.376C289.541 442.135 303.199 461.996 330.955 469.234L349.255 409.575L367.555 349.915C394.359 356.905 407.281 375.974 411.968 388.805C416.845 402.162 418.492 424.003 402.575 443.947L348.417 407.199ZM349.255 409.575L330.957 469.235C341.424 471.964 350.6 471.879 356.959 471.245C363.204 470.623 368.073 469.334 370.75 468.543C373.423 467.754 375.54 466.956 375.81 466.856C376.916 466.446 375.126 467.127 373.427 467.676L351.192 409.164L328.956 350.652C326.968 351.294 324.87 352.093 325.653 351.803C325.705 351.784 326.169 351.611 326.792 351.395C327.43 351.173 328.448 350.831 329.722 350.455C332.063 349.763 336.595 348.552 342.509 347.963C348.537 347.362 357.391 347.265 367.552 349.914L349.255 409.575ZM351.192 409.164L373.413 467.681C373.632 467.61 373.828 467.546 373.96 467.503C374.126 467.449 374.166 467.436 374.245 467.41C374.376 467.368 374.254 467.408 374.034 467.476C373.626 467.603 372.259 468.024 370.363 468.465L353.903 408.352L337.443 348.238C334.63 348.893 332.354 349.575 331.043 349.983C330.373 350.192 329.801 350.377 329.481 350.481C329.337 350.528 329.152 350.588 329.095 350.607C329.051 350.621 329.021 350.631 329 350.638C328.978 350.645 328.969 350.648 328.971 350.648L351.192 409.164Z" fill="#15127D"/>
</g>
</g>
<defs>
<clipPath id="clip0_2001_252">
<rect width="627.945" height="448" fill="white" transform="translate(65.072)"/>
</clipPath>
</defs>
</svg>
